<svg id="Layer_1" data-name="Layer 1" xmlns="http://www.w3.org/2000/svg" viewBox="0 0 80 80"><defs><style>.cls-1{fill:#2a5dcb;}.cls-2{fill:#dde6f8;}.cls-2,.cls-3{stroke:#000;stroke-miterlimit:10;}.cls-3{fill:none;}</style></defs><circle class="cls-1" cx="40" cy="40" r="39.5"/><path d="M40,1A39,39,0,1,1,1,40,39.05,39.05,0,0,1,40,1m0-1A40,40,0,1,0,80,40,40,40,0,0,0,40,0Z"/><path class="cls-2" d="M18.5,22.5v35s15.88,3,21.94,0l.12-35C34.5,19.5,18.5,22.5,18.5,22.5Z"/><path class="cls-2" d="M62.56,22.5v35s-15.88,3-21.94,0l-.12-35C46.56,19.5,62.56,22.5,62.56,22.5Z"/><path class="cls-3" d="M48.18,54.73c-1.92.45-3.54-1.85-3.57-3.53a3.2,3.2,0,0,1,3-3.42,5.19,5.19,0,0,1,2.1.68L55,51.05c1.72.84.23,2.31-1.12,2.31a5.47,5.47,0,0,1-3.11-1.08,1.82,1.82,0,0,1-.54-2.16,2.35,2.35,0,0,1,1-.81c1.91-1,4.46-1.26,5.91-3,1.66-2-1.33-4.29-3.25-4.55a4.83,4.83,0,0,0-4.73,2.35,2,2,0,0,0-.16,2c.22.35.6.56.82.9a1.72,1.72,0,0,1-.28,2,5.05,5.05,0,0,1-1.85,1.18,2.19,2.19,0,0,1-1.34.28c-.71-.14-1.09-.91-1.29-1.61-.43-1.4-.39-.35-.46-4.35s4.93-6,4.93-4-2.3,1.27-3,0,.28-3.18.8-4.52a6.64,6.64,0,0,1,2.79-3.18,10.49,10.49,0,0,0,1.83-1.16,1.94,1.94,0,0,0,.67-1.94A2.26,2.26,0,0,0,51,28.45a6.14,6.14,0,0,0-5.85,1.05,1.94,1.94,0,0,0-.71,1.12c-.12.83.63,1.52,1.35,1.95,3.1,1.86,7.13,2.3,9.5,5a3.69,3.69,0,0,1,.85,4,3.59,3.59,0,0,1-3.11,1.62,2,2,0,0,1-1.64-.5,2.11,2.11,0,0,1-.11-2.07c1.21-3.31,6-4.82,7.2-8.14a3.77,3.77,0,0,0,0-3,4.29,4.29,0,0,0-3.41-1.4c-1.28,0-1.6,1.92-.54,1.55s.77-1.7.25-2.68a2.11,2.11,0,0,0-1.68-1,5.3,5.3,0,0,0-2,.28,28.44,28.44,0,0,0-6.27,2.86,10.13,10.13,0,0,0,2.79-2.67.63.63,0,0,0,.15-.53c-.51-1.41-3.89,2.34-4.18,2.82"/><line class="cls-3" x1="21.25" y1="26.85" x2="36.73" y2="26.85"/><line class="cls-3" x1="21.25" y1="30.44" x2="30.25" y2="30.44"/><line class="cls-3" x1="21.25" y1="34.4" x2="33.64" y2="34.4"/><line class="cls-3" x1="21.34" y1="38.76" x2="36.15" y2="38.76"/><line class="cls-3" x1="21.34" y1="43.21" x2="31.02" y2="43.21"/><line class="cls-3" x1="21.44" y1="47.56" x2="37.7" y2="47.56"/><line class="cls-3" x1="21.54" y1="51.73" x2="30.16" y2="51.73"/></svg>