<svg id="Layer_1" data-name="Layer 1" xmlns="http://www.w3.org/2000/svg" viewBox="0 0 80 80"><defs><style>.cls-1{fill:#f85299;}</style></defs><circle class="cls-1" cx="40" cy="40" r="39.5"/><path d="M40,1A39,39,0,1,1,1,40,39.05,39.05,0,0,1,40,1m0-1A40,40,0,1,0,80,40,40,40,0,0,0,40,0Z"/><path d="M56.37,58.94l-2.61-2.37,1.93-2.13,7.66,7-1.93,2.13L58.8,61.14l-6,6.63-2.43-2.2Z"/><path d="M50.27,20.33v0a6.37,6.37,0,0,1,12.74,0v0a6.2,6.2,0,0,1-6.39,6.15A6.14,6.14,0,0,1,50.27,20.33Zm9.37,0v0a3,3,0,1,0-6,0v0a3.08,3.08,0,0,0,3,3.19A3,3,0,0,0,59.64,20.33Z"/><path d="M26.38,14.09l2.37,2.27-3.33,3.46,6.28-.63,2.79,2.68-6.74.55L26.4,30.5l-2.82-2.71.88-5.24-1.77.12-2.13,2.22-2.37-2.27Z"/><path d="M45,42.42l-7.75-3.87,3.16-2,4.35,2.36-.21-5L47.66,32l.09,8.61,2.38,3.79-2.78,1.74Z"/><path d="M16.26,56.33v0a6.2,6.2,0,0,1,6.39-6.15A6.13,6.13,0,0,1,29,56.26v0a6.2,6.2,0,0,1-6.39,6.15A6.14,6.14,0,0,1,16.26,56.33Zm9.38,0v0a3.06,3.06,0,0,0-3-3.2,3,3,0,0,0-3,3.16v0a3.07,3.07,0,0,0,3,3.19A3,3,0,0,0,25.64,56.33Z"/></svg>