<svg id="Layer_1" data-name="Layer 1" xmlns="http://www.w3.org/2000/svg" viewBox="0 0 80 80"><defs><style>.cls-1{fill:#dde6f8;}.cls-2{fill:#008c81;}</style></defs><circle class="cls-1" cx="40" cy="40" r="39.5"/><path d="M40,1A39,39,0,1,1,1,40,39.05,39.05,0,0,1,40,1m0-1A40,40,0,1,0,80,40,40,40,0,0,0,40,0Z"/><path class="cls-2" d="M32.74,34.63c-.16.18-.1.4-.09.6,0,.44.06.88.09,1.32l.09,1c0,.07.07.14.05.2a1.09,1.09,0,0,0-.07.3c0,.49,0,1,.08,1.46S33,40.51,33,41a5.26,5.26,0,0,1,.06.89,4,4,0,0,0,0,.91c0,.56.09,1.12.12,1.68,0,.37,0,.75,0,1.12s0,.84,0,1.26a.49.49,0,0,0,0,.12,11,11,0,0,1,.08,1.62c0,.25.07.5.08.75,0,.5,0,1,0,1.52a1.86,1.86,0,0,1-.26.6,1.88,1.88,0,0,0-.09,1.34.83.83,0,0,0,.48.54s.12.06.13.1c.09.36.41.47.7.59.12.06.11.11.1.2a.55.55,0,0,0,0,.26,1.1,1.1,0,0,1,0,.92.91.91,0,0,0,.34,1.07,6.06,6.06,0,0,1,.55.58l.2.18a1.9,1.9,0,0,1-.11.3c-.11.23-.25.46-.35.71a11.58,11.58,0,0,0-.45,1.29,1.11,1.11,0,0,1-.94.71A2.71,2.71,0,0,0,32,61a.72.72,0,0,1-.45.2.71.71,0,0,0-.66.4,1.91,1.91,0,0,1-.81.9c-.1,0-.16.17-.23.26a1.85,1.85,0,0,1-.9.78,1.85,1.85,0,0,0-.37.19,1.89,1.89,0,0,1-1.15.16c-.33,0-.66,0-1,0-.13,0-.27,0-.4,0-.32,0-.64,0-.95,0s-.71-.06-1.06-.09a4.87,4.87,0,0,0-.54,0,1.64,1.64,0,0,1-.23,0,8.39,8.39,0,0,0-1.94-.09,2.27,2.27,0,0,0-.51.1c-.07-.1-.22-.09-.36,0a.41.41,0,0,0-.12.14.86.86,0,0,1-.13.2.06.06,0,0,0,0,0,1.6,1.6,0,0,1,.05.21l-.11,0a.6.6,0,0,0-.06-.19A.28.28,0,0,0,20,64c-.15,0-.25-.08-.3-.25s-.16-.12-.25-.12c-.3,0-.6,0-.9,0a6.32,6.32,0,0,1-.74-.06c-.24,0-.36.09-.31.33a1.34,1.34,0,0,1,0,.2c-.06,0-.14,0-.17,0a.26.26,0,0,1-.06-.19.41.41,0,0,0-.4-.4c-.27,0-.54,0-.81,0a1.51,1.51,0,0,1-.36-.06c-.17,0-.33-.11-.51-.15a1.89,1.89,0,0,0-.4-.08,3.5,3.5,0,0,0-.37,0,1.14,1.14,0,0,0-.2-.31,1.34,1.34,0,0,0-.39-.16,1.73,1.73,0,0,0,0-.45c-.1-.27-.24-.52-.36-.77a.26.26,0,0,0-.07-.1c-.28-.22-.23-.5-.18-.8a2.94,2.94,0,0,0,.08-.72c0-.12-.11-.23-.17-.35a3.51,3.51,0,0,1-.33-.64l.46.4a6.57,6.57,0,0,0,.43-.52,1,1,0,0,0,.08-.35,1.8,1.8,0,0,1,.08-.35.87.87,0,0,0,0-.84,1.72,1.72,0,0,1-.11-.52,4.6,4.6,0,0,1-.06-.52.65.65,0,0,1,0-.2c0-.1.11-.19.11-.28a13.09,13.09,0,0,1,.08-1.66,7,7,0,0,0-.07-1.52c0-.35,0-.71,0-1.06a8.5,8.5,0,0,0-.07-.87c0-.18-.06-.34.11-.49A1,1,0,0,0,14,49.8c.22-.49.44-1,.64-1.48.09-.22.13-.46.21-.68A3.54,3.54,0,0,1,15,47.3s0,0,0-.08a7.72,7.72,0,0,0,.26-2,5.23,5.23,0,0,1,.1-1.48,1.21,1.21,0,0,1,.16-.45,7.07,7.07,0,0,1,.54-1,2,2,0,0,1,.59-.37l.11-.06a3.23,3.23,0,0,0,.67-.44,4,4,0,0,0,.41-.41c.11-.13.11-.23-.09-.31l0-.06.47-.15c.05,0,.11.1.16.1s.09-.1.14-.17l-.22-.09v-.05c.06,0,.14,0,.19,0a.37.37,0,0,0,.47-.11,3.73,3.73,0,0,1,.44-.29l.77-.59-.11-.36.07,0,.11.24.12-.11a.61.61,0,0,0,.73-.19s.06-.1.11-.13.2-.27,0-.44,0-.12,0-.21l.2.22a.64.64,0,0,0,.39-.66c0-.29,0-.58,0-.87,0-.12,0-.24,0-.36s.2-.11.2-.27a4.85,4.85,0,0,0-.05-.76A1.24,1.24,0,0,0,21.8,35h0l.19.06a2,2,0,0,0,0-.24.19.19,0,0,0,0-.1c-.24-.28-.15-.62-.15-.94a3.18,3.18,0,0,1,.05-.62c0-.2.14-.39.19-.59a.4.4,0,0,1,.3-.33c.13,0,.21-.28.28-.43a1.51,1.51,0,0,0,.13-.46.6.6,0,0,0,0-.26.4.4,0,0,1,0-.2l.14.09A1.71,1.71,0,0,0,23,29.89.26.26,0,0,0,23,29.8c-.36-.33-.21-.75-.2-1.14a2.51,2.51,0,0,1,0-.27.65.65,0,0,1,.08-.27,2.3,2.3,0,0,0,.23-.37c0-.07-.07-.17-.13-.29.16-.11.19-.33.24-.57a5.11,5.11,0,0,1,.22-.62,5.72,5.72,0,0,0,.11-.57c0-.07,0-.14,0-.2s0-.1,0-.14a2.62,2.62,0,0,1,.12-1.21s0,0,0-.06a.91.91,0,0,0,.2-.71.27.27,0,0,1,.17-.08.45.45,0,0,0,.32-.13,7.19,7.19,0,0,1,.83-.52.15.15,0,0,1,.14,0c.21.12.41.25.62.36l.54.29s.07,0,.08,0,.22-.08.36,0,.19,0,.18-.16.05-.09.08-.14l.06,0-.07.16a.93.93,0,0,0,.88-.55l.5-.27.3-.16a1.07,1.07,0,0,1,1.14,0,3,3,0,0,0,.61.16c.15,0,.27-.11.26-.29.17,0,.33-.08.5-.1a.16.16,0,0,1,.16.07,1.06,1.06,0,0,1,.18.37A3.06,3.06,0,0,1,32,23.71a0,0,0,0,0,0,0c.14.57,0,1.17.13,1.73a3.71,3.71,0,0,1,0,.94,3.45,3.45,0,0,0,.13,1.1.19.19,0,0,1,0,.08,9.09,9.09,0,0,0,0,1.88c0,.31.09.61.13.92,0,.14,0,.28,0,.42s0,.38,0,.57a1.77,1.77,0,0,0,0,.23c0,.1,0,.21,0,.31l.31,0,.1.25-.1,0L32.55,32a1.22,1.22,0,0,0,0,.27,1.77,1.77,0,0,1,0,.76.78.78,0,0,0,0,.37c0,.32.06.64.11,1A1.52,1.52,0,0,0,32.74,34.63Z"/><path class="cls-2" d="M60.43,63c0-.11,0-.12-.19-.11a3.87,3.87,0,0,1-.59,0,1.85,1.85,0,0,0-.74.1,1.87,1.87,0,0,1-.49,0,.82.82,0,0,0-.83-.13,5.84,5.84,0,0,1-.93,0,2.61,2.61,0,0,1-.55-.08H56a10.41,10.41,0,0,0-1.48,0,4.61,4.61,0,0,1-1.11,0c-.83,0-1.66,0-2.49,0l-1.7,0h-.06c-.56-.23-1.13,0-1.71-.08a12.58,12.58,0,0,0-2.53,0c-.21,0-.43,0-.64,0l-.81,0c0-.32,0-.6,0-.88s0-.51.06-.76.11-.51.14-.77a5.38,5.38,0,0,0,.12-1.14,10.64,10.64,0,0,1,.1-1.11c0-.47,0-1,0-1.42a8.39,8.39,0,0,0-.06-1,2.92,2.92,0,0,0-.24-.76c-.07-.16-.14-.34-.37-.36,0,0-.07-.05-.08-.09-.07-.25-.24-.47-.11-.77a4.36,4.36,0,0,0,.2-.81.6.6,0,0,0,0-.23,1.41,1.41,0,0,1,.12-.86.79.79,0,0,0-.76-1.05c-.57,0-1.13.05-1.7.08l-.31,0s-.1,0-.14,0c-.33.18-.49-.18-.7-.21,0-.16-.05-.29-.07-.42a.45.45,0,0,1,0-.2c0-.45.07-.9.11-1.35a5.83,5.83,0,0,1,.07-.84,4.35,4.35,0,0,1,.28-.76c0-.09.1-.17.14-.25a.43.43,0,0,0-.17-.56.27.27,0,0,1-.12-.4,1.7,1.7,0,0,0,.13-.55c0-.34.06-.68.1-1,0-.15,0-.2-.15-.22a1.43,1.43,0,0,0-.29,0,.42.42,0,0,1-.45-.48,1.38,1.38,0,0,1,0-.45,2.63,2.63,0,0,1,.59-.93,2.3,2.3,0,0,0,.33-.62c0-.07-.08-.2-.12-.29s.22-.11.25-.19a.57.57,0,0,0-.05-.36c-.08-.24-.18-.47-.25-.7a.75.75,0,0,1,0-.33c0-.24,0-.44-.21-.62s-.16-.34-.19-.52a2.07,2.07,0,0,1,.46-1.75,1.41,1.41,0,0,1,.83-.37,5.8,5.8,0,0,1,1.61-.1,3.59,3.59,0,0,0,.73,0,.75.75,0,0,0,.37-.2,2.14,2.14,0,0,1,.88-.56,1.31,1.31,0,0,0,.89-.62,1.4,1.4,0,0,1,.26-.34.17.17,0,0,1,.1-.06s.08,0,.1,0c.41-.21.92-.12,1.32-.39a.48.48,0,0,1,.43-.07,4,4,0,0,0,1.36.33,5.32,5.32,0,0,0,1.26,0,1,1,0,0,0,.77-.52c.09-.16.29-.25.42-.39a3.88,3.88,0,0,1,1.27-.75c.25-.11.25-.25,0-.42s-.34-.59,0-.89c.14-.12.27-.25.42-.39.29.1.45,0,.55-.29a1.22,1.22,0,0,1,.67-.8,2.56,2.56,0,0,1,.57-.24,2.08,2.08,0,0,1,1.18.11,3.71,3.71,0,0,0,.74.22.74.74,0,0,0,.66-.2.88.88,0,0,1,.22-.1c.09,0,.23-.07.27-.14.12-.27.36-.23.56-.25.46,0,.92,0,1.38,0A1.83,1.83,0,0,0,61,29a.77.77,0,0,1,.44-.14,1.2,1.2,0,0,0,.75-.33.72.72,0,0,0,.34-.56.22.22,0,0,1,.1-.13l.6-.25a2.72,2.72,0,0,1,.92-.36,1,1,0,0,0,.31-.07c.2-.11.2-.3.19-.49a4.2,4.2,0,0,1,.14-1.27c.08-.36.37-.53.67-.69s.38-.15.56-.24a.61.61,0,0,0,.21-.18.45.45,0,0,1,.41-.21c.17,0,.32.06.33.27a5.08,5.08,0,0,1,0,.78,4.29,4.29,0,0,0,0,.72,5.21,5.21,0,0,1-.06,1,1.14,1.14,0,0,0,0,.45.45.45,0,0,1-.06.46.54.54,0,0,0-.08.39c0,.29,0,.58,0,.87s0,.66,0,1a15.71,15.71,0,0,0,.09,1.67,5.63,5.63,0,0,1-.07,1.22A10.54,10.54,0,0,0,66.67,34a10.12,10.12,0,0,1,0,1.74,6.61,6.61,0,0,0,0,.89c0,.16,0,.32,0,.49,0,.48,0,1-.08,1.44a2.53,2.53,0,0,0,0,.55,6.2,6.2,0,0,1-.07,1.22c0,.62,0,1.25-.07,1.87,0,.47-.06.94-.07,1.42s0,1,0,1.47c0,.28-.06.56-.08.84a1.37,1.37,0,0,0,0,.35c0,.23,0,.47,0,.7,0,.47,0,.94,0,1.41,0,.2,0,.39,0,.58,0,.43,0,.86,0,1.29l0,.43c0,.72,0,1.43-.05,2.15,0,.37-.07.73-.1,1.1,0,.13,0,.26,0,.39,0,.34,0,.67,0,1l0,1.09c0,.29-.06.58-.07.87s0,.41,0,.62-.06.32-.07.49a1.41,1.41,0,0,0,0,.28,1,1,0,0,1,0,.3,3.47,3.47,0,0,0-.06,1.2.13.13,0,0,1,0,.06,10,10,0,0,1-.14,1.89.86.86,0,0,0,0,.45c.07.28-.1.39-.36.38a7.33,7.33,0,0,0-1.24,0,5.86,5.86,0,0,1-1,0c-.24,0-.47,0-.71,0-.5,0-1,0-1.51,0A1.42,1.42,0,0,0,60.43,63Z"/></svg>