<svg id="Layer_1" data-name="Layer 1" xmlns="http://www.w3.org/2000/svg" viewBox="0 0 80 80"><defs><style>.cls-1{fill:#008c81;}.cls-2{fill:#fff;}.cls-3{fill:#ee5637;}</style></defs><circle class="cls-1" cx="40" cy="40" r="39.5"/><path d="M40,1A39,39,0,1,1,1,40,39.05,39.05,0,0,1,40,1m0-1A40,40,0,1,0,80,40,40,40,0,0,0,40,0Z"/><path d="M29.09,29.92a9.12,9.12,0,0,0-3.37,8.84,10.23,10.23,0,0,0,.53,2,5.64,5.64,0,0,1-1.11,6c-1.09,1.32-1.63,3.09-2.52,4.59a3.92,3.92,0,0,1-1.54,1.43,27,27,0,0,1-3.19,1.13c.52,2.45-2.46,2-3.07,4.07l-1.48-2.21L17.54,53l-.2-1.81-4.95,2.53-.87-1.9,5.57-2.86V46.78l-6.27,2.73-.58-2.13c2.36-1,4.66-1.74,6.82-2.8.55-.28.69-1.39,1-2.12l-.4-.54-7.76,3-.31-2.07c3-1,6-1.86,8.85-3,.7-.28,1-1.5,1.56-2.36C16,36.27,13.34,40.35,9.67,39.75,9.49,27,19.71,11.34,38.46,10.07c17-1.15,31.45,12.08,32.39,29.66-3.73.72-6.41-3.47-10.28-2.31.37,1.56.94,2.7,2.8,2.81a9.69,9.69,0,0,1,2.56.94L70.7,43l-.12,2-8-3.11c-.11,1.77.14,2.65,1.78,3.12a43.88,43.88,0,0,1,5.77,2.51l-.56,2.05-6.25-2.79-.11,2.15,5.62,2.83-.81,2-4.9-2.49L62.81,53,67,55.62l-1.32,2.19c-.77-1.8-3.44-1.54-3.18-4.08a10.73,10.73,0,0,1-1.37-.28c-1.68-.54-3.29-1-3.73-3.23a7.89,7.89,0,0,0-2-3.42,5.63,5.63,0,0,1-1.19-6.27,9.59,9.59,0,0,0-1.69-9.69c-.3-.38-.57-.78-.86-1.18l-.4.3c.23.42.45.85.7,1.26a8.8,8.8,0,0,1,1,7.94c-1.31,3.46-1,6.39,1.66,9.11,1.81,1.86,1.84,4.08.52,6.26-.62,1-.43,1.74.55,2.25a39.68,39.68,0,0,0,3.82,1.74c.39.15,1.19.09,1.35-.16,1.41-2.22,2.35-.54,3.38.35a3.21,3.21,0,0,1,.39.49l-1.2,1.58C61,58.66,61,58.66,60.21,60l2.18,1.81-1.67,1.78-1.63-1.52c-1,.81-1,.81.16,2.65l-1.78,1.4C56,63.53,54.57,61,53.24,58.67c-.53.61-.67,1.65,0,3.12s1.43,2.58,2.13,3.87c.57,1.06.49,1.89-.9,2.13l-2.93-6.21a4,4,0,0,1,.51-4.34c3.07-3.92,3.28-7.57-.4-11.27-1.53-1.53-1-3.49-.49-5.4a23.49,23.49,0,0,0,1-5.91,7.11,7.11,0,0,0-3.66-6c.16.28.3.58.49.85a9.54,9.54,0,0,1,.81,9.8c-1.42,3.2-1.15,5.94,1.23,8.64s2.23,4,.4,7c-.19.31-.37.64-.59.93A6.48,6.48,0,0,0,50.52,64a35.52,35.52,0,0,1,2.12,4.73l-1.72.73c-1-2.16-1.77-4.29-2.79-6.32a5.51,5.51,0,0,1,.28-6.07c.18-.25.33-.52.5-.78,2.92-4.49,3-5.27-.3-9.44C46.87,44.62,47,42.38,48,40s2-4.74,1.26-7.44a9.6,9.6,0,0,0-3.76-5.35A9.72,9.72,0,0,0,46,28.39a9.18,9.18,0,0,1,.78,9.43c-.33.73-.61,1.47-.94,2.2a6.81,6.81,0,0,0,1,7.72c2.36,2.88,2.35,4.31.32,7.44-.27.41-.53.83-.83,1.22A6.5,6.5,0,0,0,45.83,64a20.3,20.3,0,0,1,1.89,4.75c.42,1.63.19,1.75-1.24,2-.95-2.51-1.74-5-2.81-7.37a5.75,5.75,0,0,1,.4-6.08c.21-.31.4-.62.61-.93,2.37-3.49,3.21-5.08.1-9.38-1.46-2-2.39-3.38-5-2.62a2.17,2.17,0,0,1-1.27-.15c-1.12-.46-1.6-.14-2,1.05a11,11,0,0,1-1.74,3C33.15,50.52,33,52,34.51,54.44c.63,1.06,1.34,2.06,2,3.09a5.58,5.58,0,0,1,.29,5.6c-1.07,2.44-1.93,5-2.94,7.65-1.13.09-1.64-.73-1.21-2.06A27.53,27.53,0,0,1,34.55,64,6.46,6.46,0,0,0,34,56.41c-.47-.64-.89-1.32-1.32-2-1.33-2.11-1.39-4.21.35-6.08,2.61-2.82,2.83-5.84,1.1-9.14-2.06-4-2.19-7.84.86-11.73-3.42,1.66-5,6.08-3.67,9.92.39,1.16.9,2.28,1.34,3.42a5.76,5.76,0,0,1-.9,6c-3.24,4.17-3.31,5-.28,9.42a6.54,6.54,0,0,1,.37,7.7,51.3,51.3,0,0,0-2.37,5.48l-1.71-.58a25.35,25.35,0,0,1,1.82-4.36c2.1-3.2,1.88-6.06-.34-9.15C26.86,52,27,50.7,29.67,47.5A6.64,6.64,0,0,0,30.82,40c-1.73-3.94-1.74-7.74,1.22-11.36a6.81,6.81,0,0,0-3.82,5.84A16.34,16.34,0,0,0,29,40a6.6,6.6,0,0,1-1.13,7.15C25.06,50.57,25,52,27.51,55.76c1.87,2.73,2,5.2.28,8A31.26,31.26,0,0,0,26,67.78c-1.34-.18-1.61-.94-1-2.12s1.38-2.33,2-3.54,1-2.64.25-3.64L23,66.08l-1.65-1.15c-.35-1.09,2-1.75.1-2.89l-1.69,1.51-1.85-1.69,2.44-1.64c-1-1.57-1-1.57-3.38.54l-1.29-1.6a12.41,12.41,0,0,1,1.87-1.63c.32-.2,1.21-.09,1.34.15.64,1.18,1.52,1.07,2.52.71a14.48,14.48,0,0,0,2-.82c2.37-1.28,2.44-1.41,1.39-3.86a4.66,4.66,0,0,1,.58-5c.48-.64.93-1.3,1.44-1.91a5.4,5.4,0,0,0,1.06-5.67C26.48,37.21,26.45,33.44,29.09,29.92Zm5.33.6c3.89-.45,5.28.59,4.44,3.4a17.73,17.73,0,0,1-3.26,0c-1.26-.23-1.51.29-1.54,1.35-.07,2.63,2.18,6.28,4.64,7.23a4.39,4.39,0,0,0,2.48.19c2.7-.71,5.43-4.84,5.12-7.61,0-.43-.42-1.18-.62-1.17-1.39.06-2.77.28-4.51.5.12-.82-.11-2.43.51-2.88,1.13-.83,2.77-1,4.22-1.43-.57-1.95-3-3.53-5.82-3.48S34.94,28.24,34.42,30.52ZM53.7,29.4c1.8,2,3.47,3.8,5.2,5.61a1.48,1.48,0,0,0,1.08.45c2.32-.36,4.3.58,6.35,1.44a22.05,22.05,0,0,0,3.45.87l.27-.55c-3.2-3.5-5.77-7.29-5.54-12.37l-.71-.14-3.49,5.14C58.25,29,56.06,28.29,53.7,29.4ZM16.56,24.71l-.72.17c.41,5.17-2.52,8.86-5.31,12.78a22.89,22.89,0,0,0,4.11-1,21.27,21.27,0,0,1,4.73-1.18,3.11,3.11,0,0,0,2.88-1.39,18.37,18.37,0,0,1,2.35-2.57c.7-.7,1.47-1.32,2.27-2-2.6-1.32-4.85-.4-6.78.28Zm17.59,7.78h3.56l.12-.64a19.92,19.92,0,0,0-2.72-.49C34.86,31.35,34.57,32,34.15,32.49Zm8.28,0H46C45.51,30.87,44.28,30.79,42.43,32.5Z"/><path class="cls-2" d="M42.21,38.87H38.37C39.71,40.67,40.46,40.7,42.21,38.87Z"/><path class="cls-3" d="M34.15,32.49c.42-.52.71-1.14,1-1.13a19.92,19.92,0,0,1,2.72.49l-.12.64Z"/><path class="cls-3" d="M42.43,32.5c1.85-1.71,3.08-1.63,3.52,0Z"/><path d="M40.19,20.74,43.12,23H37.28Z"/><path d="M42.21,38.87c-1.75,1.83-2.5,1.8-3.84,0Z"/><path class="cls-3" d="M41.21,25.44,45.12,27a9.7,9.7,0,0,0,0-7C45.12,22.8,42.91,25.28,41.21,25.44Z"/><path class="cls-3" d="M38.74,25.44,34.83,27a9.7,9.7,0,0,1,0-7C34.83,22.8,37,25.28,38.74,25.44Z"/></svg>