<svg id="Layer_1" data-name="Layer 1" xmlns="http://www.w3.org/2000/svg" viewBox="0 0 80 80"><defs><style>.cls-1{fill:#f5ebe2;}.cls-2{fill:#ee5637;}.cls-3{fill:#2a5dcb;}</style></defs><circle class="cls-1" cx="40" cy="40" r="39.5"/><path d="M40,1A39,39,0,1,1,1,40,39.05,39.05,0,0,1,40,1m0-1A40,40,0,1,0,80,40,40,40,0,0,0,40,0Z"/><path class="cls-2" d="M50.8,31.08c-.24-.61-.84-.68-1.52-.67-1.92,0-3.84,0-5.76,0-1,0-1.31.3-1.32,1.33q0,7.26-.08,14.52c0,1.17.27,1.45,1.44,1.46,1.92,0,3.84,0,5.76,0a1.3,1.3,0,0,0,1.48-.89A17.74,17.74,0,0,1,52,48.31c1.65,2.45,2.87,18.07,3.09,21.07a.91.91,0,0,0,1,.94,16.2,16.2,0,0,0,2.21-.18,4.16,4.16,0,0,0,3.45-5.08,26.31,26.31,0,0,1-.65-2.76C61,61,60.6,47.5,60.31,46.51c1.71,0,3.36,0,5,0a5.65,5.65,0,0,0,1.3-.09,3.15,3.15,0,0,0,1.66-5.07,1.65,1.65,0,0,1-.34-1,3.59,3.59,0,0,0-.8-2.34,1.39,1.39,0,0,1-.28-.86,3.07,3.07,0,0,0-.73-2.28,1.26,1.26,0,0,1-.36-1.08,3,3,0,0,0-2.84-3.28c-2.84-.06-5.68-.1-8.52,0A27,27,0,0,0,50.8,31.08ZM66,40.25H62.91c-1.08,0-1.53.28-1.55,1s.45,1,1.5,1,2,0,3.07,0a1.18,1.18,0,0,1,.23,2.34,3.36,3.36,0,0,1-.84.06c-2,0-4-.06-6-.06-1.14,0-1.6.8-1.25,1.87.63,1.91,1.26,16.83,1.76,18.78s-.78,3.33-2.88,3c-.48-2.67-1.43-18.18-3-20.41A18.44,18.44,0,0,0,51.28,45a1.19,1.19,0,0,1-.5-1c0-2.9,0-5.79,0-8.68,0-2.2.1-2.31,2.28-2.74a1.6,1.6,0,0,1,.23,0c3.14,0,6.28-.09,9.43-.09.64,0,1.06.44,1.1,1.22H60.77c-.84,0-1.31.36-1.32,1s.47,1,1.29,1,1.89,0,2.84,0a1.21,1.21,0,0,1,1.24,1.59H61.54c-.72,0-1.14.4-1.14,1s.44,1,1.16,1c1.12,0,2.25,0,3.38,0C65.71,39.1,66,39.5,66,40.25ZM48.83,32.38V45.72H44.14V32.38Z"/><path class="cls-3" d="M20,47.15c-.23.61-.84.68-1.52.68-1.92,0-3.84,0-5.76,0-1,0-1.31-.3-1.31-1.33q0-7.26-.08-14.51c0-1.18.27-1.46,1.44-1.47,1.91,0,3.83,0,5.75,0A1.29,1.29,0,0,1,20,31.4c.47-.56.9-1,1.24-1.48a16.62,16.62,0,0,0,3.08-8.07.9.9,0,0,1,1-.93,15,15,0,0,1,2.22.17A4.16,4.16,0,0,1,31,26.17c-.2.92-.4,1.85-.65,2.76s-.53,1.81-.82,2.79h5a6.23,6.23,0,0,1,1.3.09,3.14,3.14,0,0,1,1.66,5.07,1.68,1.68,0,0,0-.33,1,3.66,3.66,0,0,1-.81,2.34,1.5,1.5,0,0,0-.28.86,3.06,3.06,0,0,1-.73,2.28A1.27,1.27,0,0,0,35,44.43a3,3,0,0,1-2.83,3.28c-2.84.07-5.69.1-8.52,0A29,29,0,0,1,20,47.15ZM35.2,38H32.1c-1.08,0-1.53-.27-1.54-.95s.44-1,1.49-1,2.05,0,3.07,0a1.17,1.17,0,0,0,1.16-1.11,1.14,1.14,0,0,0-.93-1.24,3.36,3.36,0,0,0-.84,0c-2,0-4,0-6,0-1.15,0-1.61-.8-1.26-1.86C27.9,29.9,28.53,28,29,26s-.78-3.33-2.88-3.05a18.58,18.58,0,0,1-3,7.41,18.89,18.89,0,0,1-2.7,2.89,1.2,1.2,0,0,0-.51,1c0,2.89,0,5.78,0,8.67,0,2.2.1,2.31,2.27,2.74a.91.91,0,0,0,.23,0c3.14,0,6.29.1,9.43.09.65,0,1.06-.44,1.1-1.22H30c-.84,0-1.32-.35-1.33-1s.47-1,1.29-1,1.9,0,2.84,0A1.21,1.21,0,0,0,34,41c-1.08,0-2.18,0-3.27,0-.73,0-1.15-.39-1.14-1s.44-1,1.15-1c1.13,0,2.25,0,3.38,0C34.91,39.14,35.15,38.73,35.2,38ZM18,45.86V32.51H13.33V45.86Z"/></svg>