<svg id="Layer_1" data-name="Layer 1" xmlns="http://www.w3.org/2000/svg" viewBox="0 0 80 80"><defs><style>.cls-1{fill:#ffe4ad;}.cls-2{fill:#dde6f8;}.cls-2,.cls-3{stroke:#000;stroke-miterlimit:10;}.cls-3{fill:none;}</style></defs><circle class="cls-1" cx="40" cy="40" r="39.5"/><path d="M40,1A39,39,0,1,1,1,40,39.05,39.05,0,0,1,40,1m0-1A40,40,0,1,0,80,40,40,40,0,0,0,40,0Z"/><rect class="cls-2" x="13.5" y="16.5" width="54" height="41" rx="3.61"/><rect class="cls-3" x="15.5" y="18.02" width="50" height="37.96" rx="3.61"/><line class="cls-3" x1="15.5" y1="22.5" x2="43.5" y2="22.5"/><line class="cls-3" x1="16" y1="24.75" x2="40.5" y2="24.75"/><line class="cls-3" x1="16" y1="27" x2="46.5" y2="27"/><line class="cls-3" x1="16" y1="29.25" x2="46.5" y2="29.25"/><line class="cls-3" x1="16" y1="31.5" x2="54.5" y2="31.5"/><line class="cls-3" x1="65.35" y1="50.9" x2="41.5" y2="50.9"/><line class="cls-3" x1="65.85" y1="48.65" x2="36.5" y2="48.65"/><line class="cls-3" x1="65.85" y1="46.4" x2="31.5" y2="46.4"/><line class="cls-3" x1="65.85" y1="44.15" x2="35.35" y2="44.15"/><line class="cls-3" x1="65.85" y1="41.9" x2="37.5" y2="41.9"/></svg>