<svg id="Layer_1" data-name="Layer 1" xmlns="http://www.w3.org/2000/svg" viewBox="0 0 80 80"><defs><style>.cls-1{fill:#ffc600;}.cls-2{fill:none;stroke:#000;stroke-linecap:round;stroke-miterlimit:10;}.cls-3{fill:#fff;}</style></defs><circle class="cls-1" cx="40" cy="40" r="39.5"/><path d="M40,1A39,39,0,1,1,1,40,39.05,39.05,0,0,1,40,1m0-1A40,40,0,1,0,80,40,40,40,0,0,0,40,0Z"/><line class="cls-2" x1="40.5" y1="8.93" x2="40.5" y2="40.5"/><path class="cls-3" d="M38.24,9.06a2.26,2.26,0,1,1,2.26,2.25A2.26,2.26,0,0,1,38.24,9.06Z"/><path d="M37.94,9.06A2.56,2.56,0,1,0,40.5,6.5a2.56,2.56,0,0,0-2.56,2.56Zm4.52,0a2,2,0,1,1-2-2,2,2,0,0,1,2,2Z"/><line class="cls-2" x1="26.96" y1="27.96" x2="39.99" y2="40.99"/><polygon class="cls-3" points="20.81 26.72 27.42 28.39 25.74 21.78 20.81 26.72"/><path d="M20.13,26.9l7.77,2-2-7.78Zm6.81,1-5.45-1.38,4.07-4.07Z"/></svg>