<svg id="Layer_1" data-name="Layer 1" xmlns="http://www.w3.org/2000/svg" viewBox="0 0 80 80"><defs><style>.cls-1{fill:#ffd4d6;}.cls-2{fill:#ee5637;}</style></defs><circle class="cls-1" cx="40" cy="40" r="39.5"/><path d="M40,1A39,39,0,1,1,1,40,39.05,39.05,0,0,1,40,1m0-1A40,40,0,1,0,80,40,40,40,0,0,0,40,0Z"/><circle class="cls-2" cx="22" cy="66" r="1.5"/><path d="M22,65a1,1,0,1,1-1,1,1,1,0,0,1,1-1m0-1a2,2,0,1,0,2,2,2,2,0,0,0-2-2Z"/><circle class="cls-2" cx="29" cy="57" r="2.5"/><path d="M29,55a2,2,0,1,1-2,2,2,2,0,0,1,2-2m0-1a3,3,0,1,0,3,3,3,3,0,0,0-3-3Z"/><circle class="cls-2" cx="37" cy="45" r="4.5"/><path d="M37,41a4,4,0,1,1-4,4,4,4,0,0,1,4-4m0-1a5,5,0,1,0,5,5,5,5,0,0,0-5-5Z"/><path class="cls-2" d="M49,36.5a4.49,4.49,0,0,1-4.25-3.1l-.17-.51-.5.2a5.5,5.5,0,0,1-4.76-9.89l.3-.17,0-.34A5.2,5.2,0,0,1,39.5,22,4.51,4.51,0,0,1,44,17.5a4.46,4.46,0,0,1,2.94,1.12l.58.5.22-.73A5.5,5.5,0,0,1,58,17.76l.21.47.46-.22A5.44,5.44,0,0,1,61,17.5a5.5,5.5,0,0,1,3.28,9.91l-.3.22.14.36A5.5,5.5,0,0,1,59,35.5a5.44,5.44,0,0,1-4.7-2.66l-.64-1.06L53.38,33A4.46,4.46,0,0,1,49,36.5Z"/><path d="M53,15a5,5,0,0,1,4.57,3l.41.93.92-.43A5,5,0,0,1,64,27l-.61.45.28.71A5,5,0,0,1,59,35a4.94,4.94,0,0,1-4.27-2.42l-1.29-2.12-.55,2.42a4,4,0,0,1-7.67.36l-.33-1-1,.41A5.09,5.09,0,0,1,42,33a5,5,0,0,1-2.43-9.36l.6-.34-.1-.69A3.46,3.46,0,0,1,40,22a4,4,0,0,1,6.61-3l1.16,1,.45-1.47A5,5,0,0,1,53,15m0-1a6,6,0,0,0-5.74,4.24A5,5,0,0,0,39,22a4.78,4.78,0,0,0,.08.76A6,6,0,0,0,42,34a5.93,5.93,0,0,0,2.27-.45,5,5,0,0,0,9.6-.45A6,6,0,0,0,65,30a5.89,5.89,0,0,0-.42-2.19A6,6,0,0,0,61,17a5.92,5.92,0,0,0-2.52.56A6,6,0,0,0,53,14Z"/></svg>