<svg id="Layer_1" data-name="Layer 1" xmlns="http://www.w3.org/2000/svg" xmlns:xlink="http://www.w3.org/1999/xlink" viewBox="0 0 80.08 80.85"><defs><style>.cls-1{fill:none;}.cls-2{fill:#ee5637;}.cls-3{clip-path:url(#clip-path);}</style><clipPath id="clip-path"><circle class="cls-1" cx="40" cy="40" r="40"/></clipPath></defs><circle class="cls-2" cx="40" cy="40" r="39.5"/><path d="M40,1A39,39,0,1,1,1,40,39.05,39.05,0,0,1,40,1m0-1A40,40,0,1,0,80,40,40,40,0,0,0,40,0Z"/><g class="cls-3"><path d="M7.27,36.66V23.8H66.72V36.64c-1.18.09-2.35.11-3.49.3a18.21,18.21,0,0,0-3.58.89c-2,.79-2.63,2.34-1.84,4.38a22.65,22.65,0,0,0,1.55,2.13c1.76,2.46,1.89,4.24,3.16,7Q69.21,65.67,75.87,80l9.3,20c.09.19.19.37.37.69L87,96.61q5.16-14.39,10.31-28.78c.32-.89.65-1.78,1-2.68a11.5,11.5,0,0,0,.34-1.28c.57-3-.67-5.2-3.58-6.3a23,23,0,0,0-6.64-1l-.75-.05c.1-.34.19-.65.3-.95,1.16-3.17,2.33-6.33,3.47-9.5a.7.7,0,0,1,.78-.54l60.31,0,.58,0-.77,2c-1.05,2.79-2.12,5.57-3.14,8.36a.82.82,0,0,1-.89.58,49.35,49.35,0,0,0-10.7,1.19,19.19,19.19,0,0,0-5.3,2.18c-2.4,1.47-3.62,3.76-4.55,6.31Q120.36,86.3,113,106.38q-5.37,14.67-10.69,29.35a1.32,1.32,0,0,0,0,.92c.94,2.19,1.93,4.36,2.9,6.54l.27.66H69.65A37,37,0,0,1,71,140.19a4,4,0,0,0-.13-3.89C63.71,121.14,56.6,106,49.46,90.76q-10-21.35-20.08-42.68a30.92,30.92,0,0,0-2.47-4.43,14.69,14.69,0,0,0-7.75-5.27A41.47,41.47,0,0,0,7.88,36.69Z"/></g></svg>