<svg id="Layer_1" data-name="Layer 1" xmlns="http://www.w3.org/2000/svg" xmlns:xlink="http://www.w3.org/1999/xlink" viewBox="0 0 80 80"><defs><style>.cls-1,.cls-4{fill:none;}.cls-2{fill:#dde6f8;}.cls-3{clip-path:url(#clip-path);}.cls-4{stroke:#2a5dcb;stroke-miterlimit:10;}</style><clipPath id="clip-path"><circle class="cls-1" cx="-71" cy="40" r="40"/></clipPath></defs><circle class="cls-2" cx="40" cy="40" r="39.5"/><path d="M40,1A39,39,0,1,1,1,40,39.05,39.05,0,0,1,40,1m0-1A40,40,0,1,0,80,40,40,40,0,0,0,40,0Z"/><g class="cls-3"><path d="M-103.73,36.66V23.8h59.45V36.64c-1.18.09-2.35.11-3.49.3a18.21,18.21,0,0,0-3.58.89c-2,.79-2.63,2.34-1.84,4.38a22.65,22.65,0,0,0,1.55,2.13c1.76,2.46,1.89,4.24,3.16,7Q-41.79,65.67-35.13,80l9.3,20c.09.19.19.37.37.69l1.47-4.1q5.16-14.39,10.31-28.78c.32-.89.65-1.78.95-2.68a11.5,11.5,0,0,0,.34-1.28c.57-3-.67-5.2-3.58-6.3a23,23,0,0,0-6.64-1l-.75-.05c.1-.34.19-.65.3-.95,1.16-3.17,2.33-6.33,3.47-9.5a.7.7,0,0,1,.78-.54l60.31,0,.58,0-.77,2c-1.05,2.79-2.12,5.57-3.14,8.36a.82.82,0,0,1-.89.58,49.35,49.35,0,0,0-10.7,1.19,19.19,19.19,0,0,0-5.3,2.18c-2.4,1.47-3.62,3.76-4.55,6.31Q9.37,86.3,2,106.38-3.4,121.05-8.72,135.73a1.32,1.32,0,0,0,0,.92c.94,2.19,1.93,4.36,2.9,6.54l.27.66H-41.35A37,37,0,0,1-40,140.19a4,4,0,0,0-.13-3.89C-47.29,121.14-54.4,106-61.54,90.76q-10-21.35-20.08-42.68a30.92,30.92,0,0,0-2.47-4.43,14.69,14.69,0,0,0-7.75-5.27,41.47,41.47,0,0,0-11.28-1.69Z"/></g><path class="cls-4" d="M8.89,54.07c2.12-2.08,5.69-4.9,10.3-5.15,7-.37,9.55,5.53,16.73,5.15,6.52-.34,6.94-5.35,12.87-5.15,6.58.22,8.69,6.45,15.45,6.44a14,14,0,0,0,8.37-3.22"/><path class="cls-4" d="M8.89,48.63c2.12-2.08,5.69-4.9,10.3-5.15,7-.37,9.55,5.53,16.73,5.15,6.52-.34,6.94-5.34,12.87-5.15,6.58.22,8.69,6.46,15.45,6.44a14,14,0,0,0,8.37-3.22"/><path class="cls-4" d="M7.6,43.62c2.13-2.08,5.69-4.9,10.3-5.15,7-.37,9.55,5.53,16.73,5.15,6.53-.34,6.94-5.34,12.87-5.15,6.59.22,8.69,6.46,15.45,6.44a14,14,0,0,0,8.37-3.22"/><path class="cls-4" d="M7.6,38.47c2.13-2.08,5.69-4.9,10.3-5.15,7-.37,9.55,5.53,16.73,5.15,6.53-.34,6.94-5.34,12.87-5.15,6.59.22,8.69,6.46,15.45,6.44a14,14,0,0,0,8.37-3.22"/><path class="cls-4" d="M7.6,33.32c2.13-2.08,5.69-4.9,10.3-5.14,7-.38,9.55,5.52,16.73,5.14C41.16,33,41.57,28,47.5,28.18c6.59.21,8.69,6.45,15.45,6.43a13.91,13.91,0,0,0,8.37-3.22"/></svg>