<svg id="Layer_1" data-name="Layer 1" xmlns="http://www.w3.org/2000/svg" viewBox="0 0 80 80"><defs><style>.cls-1{fill:#ffd4d6;}.cls-2{fill:#f85299;}.cls-2,.cls-3{stroke:#000;stroke-miterlimit:10;}.cls-3{fill:#ffc600;}</style></defs><circle class="cls-1" cx="40" cy="40" r="39.5"/><path d="M40,1A39,39,0,1,1,1,40,39.05,39.05,0,0,1,40,1m0-1A40,40,0,1,0,80,40,40,40,0,0,0,40,0Z"/><polygon class="cls-2" points="17.5 19.5 61.11 19.5 61.11 48.9 55.5 44.5 51.5 50.5 45.5 42.5 40.5 59.5 35.56 41.68 31.5 49.5 27.82 41.68 17.5 53.5 17.5 19.5"/><path class="cls-3" d="M52.5,31S46.9,36,40,36s-12.5-5-12.5-5,5.6-5,12.5-5S52.5,31,52.5,31Z"/><circle cx="40" cy="31" r="5"/></svg>