<svg id="Layer_1" data-name="Layer 1" xmlns="http://www.w3.org/2000/svg" viewBox="0 0 80 80"><defs><style>.cls-1{fill:#ffe4ad;}.cls-2{font-size:23.21px;font-family:Gotham-Black, Gotham;font-weight:800;}.cls-3{fill:#ee5637;}</style></defs><circle class="cls-1" cx="40" cy="40" r="39.5"/><path d="M40,1A39,39,0,1,1,1,40,39.05,39.05,0,0,1,40,1m0-1A40,40,0,1,0,80,40,40,40,0,0,0,40,0Z"/><text class="cls-2" transform="translate(23.95 30.75) scale(0.58)">0%</text><path class="cls-3" d="M45.36,47.42c3-2,7.1-.29,6.72,4.36A14.5,14.5,0,0,1,54.63,53a4.93,4.93,0,0,1,1.78,3.81A19.47,19.47,0,0,1,55,66.4c-.65,1.52-1.25,3.07-2,4.55a10.66,10.66,0,0,0-1.36,6.15c.09.73,0,1.52-1,1.53s-1-.78-1-1.52a12.78,12.78,0,0,1,1.2-6.33c1.43-3.16,3.22-6.24,3.56-9.79a28.62,28.62,0,0,0-.07-4.81A2.33,2.33,0,0,0,52.17,54c-2.5-.37-5-.77-7.51-1.11-.73-.1-1.66-.36-1.85.82s-.07,2.13,1.15,2.61c1.38.55,2.8,1,4.15,1.6.55.24,1.41.82,1.36,1.13a5.15,5.15,0,0,1-1.08,2.63c-.84.9-2.09,1.42-3,2.25a7,7,0,0,0-2.65,4.94c0,.39-.63.75-1,1.12-.29-.4-.83-.8-.84-1.21a7.37,7.37,0,0,1,2.38-5.49C44.53,62,46,60.93,47.42,59.71l-1.6-.66c-2.59,3.84-5.33,4.12-8,.84-.21.08-.45.16-.67.26a4.08,4.08,0,0,1-5.92-3.85c0-5.46,0-10.93,0-16.39a5.68,5.68,0,0,0,0-1.17,2.09,2.09,0,0,0-2.09-1.82A2,2,0,0,0,27,38.51a5.61,5.61,0,0,0-.13,1.42q0,12.39,0,24.78c0,2.28.44,4.29,2.59,5.64A3.5,3.5,0,0,1,31,73.62c0,1,.16,2.1.06,3.13-.05.47-.58.88-.89,1.31-.33-.42-.87-.81-1-1.28A11.94,11.94,0,0,1,29.17,74,2.58,2.58,0,0,0,28,71.58a6.72,6.72,0,0,1-3-6C24.94,56.8,25,48,25,39.15a4.08,4.08,0,1,1,8.15,0c0,2.14,0,4.28.06,6.42,0,0,0,.08.08.19,1.86-.57,3.68-.66,5.15.91C41.59,44.79,43.13,44.94,45.36,47.42ZM33.1,52.89c0,1.18,0,2.36,0,3.54a2.12,2.12,0,0,0,2.1,2.22,2.08,2.08,0,0,0,2.26-2q.12-3.6,0-7.2a2.12,2.12,0,0,0-2.23-2.1,2.14,2.14,0,0,0-2.14,2.19C33.07,50.62,33.1,51.76,33.1,52.89Zm10.71-2.17A11.83,11.83,0,0,0,43.69,49a2.08,2.08,0,0,0-2.3-1.7,2,2,0,0,0-2,1.93c-.08,3-.07,6,0,9a2,2,0,0,0,2.14,1.89,2,2,0,0,0,2.08-1.85,4,4,0,0,1-2.9-4.45A3.08,3.08,0,0,1,43.81,50.72Zm6.13.89c.2-1.87-.5-2.91-1.87-3s-2.21.72-2.28,2.46Z"/></svg>