<svg id="Layer_1" data-name="Layer 1" xmlns="http://www.w3.org/2000/svg" viewBox="0 0 80 80"><defs><style>.cls-1{fill:#fdc48b;}.cls-2{fill:none;}.cls-2,.cls-3{stroke:#000;stroke-miterlimit:10;}.cls-3{fill:#008c81;}.cls-4{fill:#fff;}</style></defs><circle class="cls-1" cx="40" cy="40" r="39.5"/><path d="M40,1A39,39,0,1,1,1,40,39.05,39.05,0,0,1,40,1m0-1A40,40,0,1,0,80,40,40,40,0,0,0,40,0Z"/><line class="cls-2" x1="41.49" y1="65.21" x2="75.89" y2="37.42"/><line class="cls-2" x1="41.49" y1="65.21" x2="5.76" y2="37.42"/><polygon class="cls-3" points="5.76 37.42 24.29 22.87 23.63 28.5 28.26 28.16 25.61 32.13 30.9 32.13 15.15 44.72 5.76 37.42"/><polygon class="cls-3" points="75.89 37.42 57.37 24.19 58.03 28.5 54.72 28.16 56.05 32.13 50.75 32.13 66.51 44.72 75.89 37.42"/><path class="cls-4" d="M20.42,32.08a2.63,2.63,0,0,0-1.28-.62v2.11c1.29.29,1.84.79,1.84,1.66s-.75,1.54-1.82,1.61v.84h-.55v-.85a3.55,3.55,0,0,1-2-.88l.38-.52a2.91,2.91,0,0,0,1.66.82V34.11c-1.26-.3-1.82-.76-1.82-1.66h0a1.68,1.68,0,0,1,1.79-1.58v-.5h.55v.51a3.06,3.06,0,0,1,1.63.69Zm-1.78,1.37v-2c-.73,0-1.16.44-1.16,1S17.7,33.21,18.64,33.45Zm.5.77v2.06c.73,0,1.18-.45,1.18-1h0C20.32,34.77,20.07,34.47,19.14,34.22Z"/><path class="cls-4" d="M65.41,33.4a2.61,2.61,0,0,0-1.28-.61V34.9c1.29.29,1.84.78,1.84,1.65a1.72,1.72,0,0,1-1.82,1.62V39H63.6v-.85a3.52,3.52,0,0,1-2-.88l.38-.51a3,3,0,0,0,1.66.82V35.43c-1.26-.3-1.82-.76-1.82-1.65h0a1.68,1.68,0,0,1,1.79-1.58v-.5h.55v.52a3.12,3.12,0,0,1,1.63.68Zm-1.78,1.38v-2c-.73,0-1.16.45-1.16,1S62.69,34.53,63.63,34.78Zm.5.76V37.6c.73,0,1.18-.44,1.18-1h0C65.31,36.09,65.06,35.79,64.13,35.54Z"/></svg>