<svg id="Layer_1" data-name="Layer 1" xmlns="http://www.w3.org/2000/svg" viewBox="0 0 80 80"><defs><style>.cls-1{fill:#008c81;}.cls-2{fill:#dde6f8;}.cls-2,.cls-3,.cls-4{stroke:#000;stroke-linecap:square;stroke-linejoin:round;}.cls-3{fill:#ffe4ad;}.cls-4{fill:none;}</style></defs><circle class="cls-1" cx="40" cy="40" r="39.5"/><path d="M40,1A39,39,0,1,1,1,40,39.05,39.05,0,0,1,40,1m0-1A40,40,0,1,0,80,40,40,40,0,0,0,40,0Z"/><path class="cls-2" d="M14.08,58.29S1.19,61.21,40.35,61.21,67.5,58.08,66,58.29"/><path class="cls-3" d="M29.5,50.5s17-4,11-10c0,0,8,6,8,9"/><path class="cls-4" d="M15.28,43.52l1.5,2.29"/><path class="cls-4" d="M20.85,37l1.62,3.11"/><path class="cls-4" d="M31.87,31.79A26.37,26.37,0,0,1,32.34,35"/><path class="cls-4" d="M46.8,31.46a7.44,7.44,0,0,0-1.36,2.95"/><path class="cls-4" d="M58.54,38.82a18.18,18.18,0,0,0-2.48,2.56"/><path class="cls-4" d="M64.47,48.53A10.63,10.63,0,0,0,61.74,50"/><path class="cls-2" d="M14.08,58.51S18,58.07,18,55.28H61.5C61.84,57,66,58.51,66,58.51Z"/><path class="cls-3" d="M35.5,49.5c-17,0-14,5.78-14,5.78H57.86s1.77-6.23-13.29-6.23"/></svg>