<svg id="Layer_1" data-name="Layer 1" xmlns="http://www.w3.org/2000/svg" viewBox="0 0 80 80"><defs><style>.cls-1{fill:#dde6f8;}.cls-2{fill:#2a5dcb;}.cls-3{fill:#ee5637;}.cls-4{fill:none;stroke:#000;stroke-miterlimit:10;}</style></defs><circle class="cls-1" cx="40" cy="40" r="39.5"/><path d="M40,1A39,39,0,1,1,1,40,39.05,39.05,0,0,1,40,1m0-1A40,40,0,1,0,80,40,40,40,0,0,0,40,0Z"/><path class="cls-2" d="M39.13,31.63c-1.52-1-7.07-5.15-8.17-11S33.54,9,34.59,7.43c1.52,1,7.07,5.15,8.17,11S40.18,30.11,39.13,31.63Z"/><path d="M34.72,8.14c1.88,1.34,6.57,5.16,7.55,10.37S40.26,29,39,30.92c-1.87-1.34-6.56-5.16-7.54-10.37s2-10.48,3.26-12.41m-.26-1.39s-5.31,6.92-4,14,8.79,11.58,8.79,11.58,5.32-6.92,4-14S34.46,6.75,34.46,6.75Z"/><rect class="cls-3" x="29.49" y="31.69" width="23" height="25" transform="translate(-7.45 8.33) rotate(-10.64)"/><path d="M49.58,30.37,54,54,32.39,58,28,34.43l21.62-4.06m.8-1.17L26.79,33.63l4.8,25.55,23.59-4.43L50.38,29.2Z"/><line class="cls-4" x1="35.92" y1="57.86" x2="35.74" y2="73.16"/><line class="cls-4" x1="49.68" y1="55.28" x2="56.2" y2="68.3"/><path class="cls-4" d="M52,38.05s7.47-.9,8.69-5.2,6.05-5.71,6.05-5.71"/><path class="cls-4" d="M29.59,45.82s-12,1.24-12.47-6.81-4.43-7.31-4.43-7.31"/></svg>