<svg id="Layer_1" data-name="Layer 1" xmlns="http://www.w3.org/2000/svg" xmlns:xlink="http://www.w3.org/1999/xlink" viewBox="0 0 78 78"><defs><style>.cls-1{fill:none;}.cls-2{fill:#2a5dcb;}.cls-3{clip-path:url(#clip-path);}.cls-4{fill:#f5ebe2;}</style><clipPath id="clip-path"><circle class="cls-1" cx="39" cy="39" r="39"/></clipPath></defs><circle class="cls-2" cx="39" cy="39" r="39.5"/><path d="M39,0A39,39,0,1,1,0,39,39.05,39.05,0,0,1,39,0m0-1A40,40,0,1,0,79,39,40,40,0,0,0,39-1Z"/><g class="cls-3"><path class="cls-4" d="M8.29,60.94V54.5l10-2.21L19,71.66S11.21,66.79,8.29,60.94Z"/><path class="cls-4" d="M21,72.64,20.1,51.89l14.15-3.12s3.29,25.82,2.31,28.74C34.61,77.51,23.89,75.56,21,72.64Z"/><path class="cls-4" d="M39.34,77.51s-3.66-29.06-3.22-29.16l27-6S62.54,64,61.91,69.71C56.41,74.46,39.34,77.51,39.34,77.51Z"/><path class="cls-4" d="M63.86,67.76,65.05,42l12.24-2.7S77.51,58,63.86,67.76Z"/><path class="cls-4" d="M13.65,10.24l3.1,40.44L4,53.51A37.33,37.33,0,0,1,2,28.27,36.9,36.9,0,0,1,13.65,10.24Z"/><path class="cls-4" d="M15.11,9.26l1.64,18.62L35.68,22.5,32.17,1.18A52.67,52.67,0,0,0,15.11,9.26Z"/><path class="cls-4" d="M16.75,30l53-13.87S78,27.41,77.29,36.86C25.84,48.26,19,49.24,19,49.24Z"/><path class="cls-4" d="M34,1.18l3.55,20.76L52.16,18,47.29,1.46S39.21-.08,34,1.18Z"/><path class="cls-4" d="M49.27,2l4.84,15.11s11.7-1,13.65-2.92"/></g></svg>