<svg id="Layer_1" data-name="Layer 1" xmlns="http://www.w3.org/2000/svg" viewBox="0 0 80 80"><defs><style>.cls-1{fill:#ffe4ad;}.cls-2{fill:#ee5637;}.cls-3{stroke:#000;stroke-miterlimit:10;}</style></defs><circle class="cls-1" cx="40" cy="40" r="39.5"/><path d="M40,1A39,39,0,1,1,1,40,39.05,39.05,0,0,1,40,1m0-1A40,40,0,1,0,80,40,40,40,0,0,0,40,0Z"/><circle class="cls-2" cx="40.44" cy="68.56" r="4.44"/><rect class="cls-2" x="38.54" y="7" width="3.81" height="60.92" rx="1.5"/><line class="cls-3" x1="44.88" y1="61.31" x2="50.21" y2="61.31"/><line class="cls-3" x1="30.88" y1="59.31" x2="36.21" y2="59.31"/><line class="cls-3" x1="30.88" y1="55.01" x2="36.21" y2="55.01"/><line class="cls-3" x1="30.88" y1="50.71" x2="36.21" y2="50.71"/><line class="cls-3" x1="30.88" y1="46.41" x2="36.21" y2="46.41"/><line class="cls-3" x1="30.88" y1="42.11" x2="36.21" y2="42.11"/><line class="cls-3" x1="30.88" y1="37.81" x2="36.21" y2="37.81"/><line class="cls-3" x1="30.88" y1="33.51" x2="36.21" y2="33.51"/><line class="cls-3" x1="30.88" y1="29.21" x2="36.21" y2="29.21"/><line class="cls-3" x1="30.88" y1="24.91" x2="36.21" y2="24.91"/><line class="cls-3" x1="30.88" y1="20.61" x2="36.21" y2="20.61"/><line class="cls-3" x1="30.88" y1="16.31" x2="36.21" y2="16.31"/><line class="cls-3" x1="44.88" y1="52.31" x2="50.21" y2="52.31"/><line class="cls-3" x1="44.88" y1="43.31" x2="50.21" y2="43.31"/><line class="cls-3" x1="44.88" y1="34.31" x2="50.21" y2="34.31"/><line class="cls-3" x1="44.88" y1="25.31" x2="50.21" y2="25.31"/><line class="cls-3" x1="44.88" y1="16.31" x2="50.21" y2="16.31"/></svg>