<svg id="Layer_1" data-name="Layer 1" xmlns="http://www.w3.org/2000/svg" viewBox="0 0 80 80"><defs><style>.cls-1{fill:#ee5637;}.cls-2{fill:#ffc600;}.cls-3{fill:none;stroke:#000;stroke-miterlimit:10;}</style></defs><circle class="cls-1" cx="40" cy="40" r="39.5"/><path d="M40,1A39,39,0,1,1,1,40,39.05,39.05,0,0,1,40,1m0-1A40,40,0,1,0,80,40,40,40,0,0,0,40,0Z"/><circle class="cls-2" cx="28.79" cy="18.12" r="5.51"/><rect class="cls-2" x="20.41" y="24.46" width="7.35" height="25.73" rx="3.68"/><rect class="cls-2" x="39.75" y="37.39" width="7.35" height="25.73" rx="3.68"/><rect class="cls-2" x="20.5" y="39.66" width="26.33" height="7.35" rx="3.68" transform="translate(-12.28 13.33) rotate(-19.02)"/><rect x="10.23" y="19.27" width="7.68" height="38.55" rx="2.89" transform="translate(-4.57 1.99) rotate(-6.96)"/><rect x="18" y="46.07" width="6.32" height="17.55" rx="2.85" transform="translate(76 33.69) rotate(90)"/><rect x="49.3" y="19.27" width="7.68" height="38.55" rx="2.89" transform="translate(-4.28 6.72) rotate(-6.96)"/><rect x="57.07" y="46.07" width="6.32" height="17.55" rx="2.85" transform="translate(115.07 -5.38) rotate(90)"/><line class="cls-3" x1="25.64" y1="54.06" x2="28.98" y2="65.02"/><line class="cls-3" x1="15.16" y1="64.55" x2="32.79" y2="65.02"/><line class="cls-3" x1="60.9" y1="54.06" x2="64.24" y2="65.02"/><line class="cls-3" x1="50.42" y1="64.55" x2="68.05" y2="65.02"/></svg>