<svg id="Layer_1" data-name="Layer 1" xmlns="http://www.w3.org/2000/svg" viewBox="0 0 80 80"><path d="M40,1A39,39,0,1,1,1,40,39.05,39.05,0,0,1,40,1m0-1A40,40,0,1,0,80,40,40,40,0,0,0,40,0Z"/><rect x="18" y="18" width="15" height="15"/><rect x="33" y="33" width="15" height="15"/><rect x="48" y="18" width="15" height="15"/><rect x="63" y="33" width="15" height="15"/><rect x="48" y="48" width="15" height="15"/><rect x="18" y="48" width="15" height="15"/><rect x="3" y="33" width="15" height="15"/><rect x="3" y="3" width="15" height="15"/><rect x="33" y="3" width="15" height="15"/><rect x="63" y="3" width="15" height="15"/><rect x="63" y="63" width="15" height="15"/><rect x="33" y="63" width="15" height="15"/><rect x="3" y="63" width="15" height="15"/></svg>