<svg id="Layer_1" data-name="Layer 1" xmlns="http://www.w3.org/2000/svg" viewBox="0 0 80 80"><defs><style>.cls-1{fill:#ee5637;}.cls-2,.cls-3{fill:none;stroke-miterlimit:10;}.cls-2{stroke:#000;}.cls-3{stroke:#ffc600;stroke-width:5px;}</style></defs><circle class="cls-1" cx="40" cy="40" r="39.5"/><path d="M40,1A39,39,0,1,1,1,40,39.05,39.05,0,0,1,40,1m0-1A40,40,0,1,0,80,40,40,40,0,0,0,40,0Z"/><line class="cls-2" x1="19" y1="18.62" x2="19" y2="63"/><path d="M19,15a18.19,18.19,0,0,1-2.85,5.13l2.85-1,2.85,1A18.19,18.19,0,0,1,19,15Z"/><line class="cls-2" x1="63.38" y1="63.5" x2="19" y2="63.5"/><path d="M67,63.5a18.19,18.19,0,0,1-5.13-2.85l1,2.85-1,2.85A18.19,18.19,0,0,1,67,63.5Z"/><line class="cls-3" x1="27.51" y1="54.49" x2="53.49" y2="28.51"/><line class="cls-3" x1="27.51" y1="28.51" x2="53.49" y2="54.49"/></svg>