<svg id="Layer_1" data-name="Layer 1" xmlns="http://www.w3.org/2000/svg" viewBox="0 0 80 80"><defs><style>.cls-1{fill:#ffc600;}</style></defs><circle class="cls-1" cx="40" cy="40" r="39.5"/><path d="M40,1A39,39,0,1,1,1,40,39.05,39.05,0,0,1,40,1m0-1A40,40,0,1,0,80,40,40,40,0,0,0,40,0Z"/><path d="M44.58,16.39c-.24.85-.52,1.76-.75,2.67a1.18,1.18,0,0,0,.14.61c0,.06.11.1.16.15,3.1,2.65,2.29,1.69,2.72,5.56.07.61.12,1.23.14,1.84,0,1-.36,1.53-1.07,1.58a1.36,1.36,0,0,1-1.64-1.45c-.09-1.1-.2-2.19-.24-3.29a1.68,1.68,0,0,0-.75-1.41c-.47-.34-.89-.75-1.43-1.21-.13.84-.2,1.57-.36,2.28A3.26,3.26,0,0,1,41,25c-1,1.17-2,2.29-3,3.39-.87.93-1.72.83-2.29-.2a1.21,1.21,0,0,1,.21-1.54c.88-1,1.75-1.93,2.61-2.92a1.69,1.69,0,0,0,.41-.78,57,57,0,0,1,1.54-8.52.62.62,0,0,0,0-.23,2.22,2.22,0,0,0-2.23,1.58,17.08,17.08,0,0,1-1,2.23,1.14,1.14,0,0,1-1.54.6.93.93,0,0,1-.72-1.3c.6-1.49,1.29-2.95,2-4.37a1.76,1.76,0,0,1,1-.62c1.43-.47,2.88-.88,4.33-1.31a2.19,2.19,0,0,1,2.78,1.13c.62,1.05,1.27,2.1,1.94,3.13a1,1,0,0,0,.59.38c1.08.22,2.16.39,3.24.6.76.14,1.06.62,1,1.46a.94.94,0,0,1-1.19.89,29,29,0,0,1-4.37-.77C45.6,17.67,45.13,16.9,44.58,16.39Z"/><path d="M44.12,6a2.37,2.37,0,1,1-2.33,2.36A2.36,2.36,0,0,1,44.12,6Z"/><path d="M52.08,66.7H31.74c0,.14,0,.27,0,.39,0,.52,0,1,0,1.55-.05,1.23-.46,1.77-1.67,1.88a18.43,18.43,0,0,1-3-.08,1.27,1.27,0,0,1-1.2-1.19,10.15,10.15,0,0,1-.12-1.46q0-3.69,0-7.38a12.66,12.66,0,0,1,.79-4.13c.11-.31.2-.64.31-1a2.72,2.72,0,0,1-2-1.63,1.4,1.4,0,0,1,1-2.13,7.88,7.88,0,0,1,2-.08.65.65,0,0,0,.77-.44c.43-1,.85-2.08,1.3-3.11a8.23,8.23,0,0,1,.78-1.43A3.48,3.48,0,0,1,33.79,45L49.2,45a5.37,5.37,0,0,1,2.89.62,4,4,0,0,1,1.67,2c.51,1.26,1,2.52,1.54,3.77,0,0,0,.06,0,0h2.17a2.09,2.09,0,0,1,.49.08,1.4,1.4,0,0,1,1,2.07,2.89,2.89,0,0,1-2,1.7,19.88,19.88,0,0,1,.6,1.95,19.49,19.49,0,0,1,.45,3c.09,2.34.09,4.68.09,7a10.45,10.45,0,0,1-.18,1.85,1.41,1.41,0,0,1-1.29,1.27,18.07,18.07,0,0,1-3.12,0c-.94-.08-1.33-.62-1.4-1.57-.05-.58,0-1.16-.05-1.74ZM41.93,55.65v0c2.6,0,5.2,0,7.8,0,1.24,0,2.48-.08,3.72-.15a.66.66,0,0,0,.67-.84,4.71,4.71,0,0,0-.28-1c-.27-.69-.58-1.36-.87-2-.54-1.23-1.06-2.47-1.61-3.7a2.36,2.36,0,0,0-2.23-1.48c-.66,0-1.32,0-2,0l-6.79,0q-3,0-6,.07a1.78,1.78,0,0,0-1.45.72,9.7,9.7,0,0,0-1,1.74c-.52,1.16-.95,2.35-1.41,3.53-.27.7-.56,1.4-.77,2.11s0,.88.66,1a6.73,6.73,0,0,0,1,.07Zm-8.14,4v3H50v-3ZM29.7,63.44a1.8,1.8,0,1,0-1.84-1.81A1.81,1.81,0,0,0,29.7,63.44Zm24.42-3.61A1.81,1.81,0,1,0,56,61.63,1.81,1.81,0,0,0,54.12,59.83Z"/><path d="M48.1,33.06,43,38.5l-1.14,1.22c-.5.51-.82.49-1.21-.09l-3.46-5.12c-.06-.1-.14-.19-.26-.37l-.63,1.1a6.33,6.33,0,0,1,2.8,5.33,6,6,0,0,1-1.53,4.07,6.36,6.36,0,0,1-10.72-6.56,6.21,6.21,0,0,1,3.52-3.46,6.45,6.45,0,0,1,4.9.05c.29-.5.57-1,.81-1.48a.44.44,0,0,0,0-.4c-.52-.82-1-1.65-1.63-2.43a1.12,1.12,0,0,0-.76-.3c-.42,0-.74-.14-.71-.63s.32-.57.73-.54c1.18.07,2.36.13,3.55.22.38,0,.69.19.65.65s-.36.54-.75.52l-1.36-.07c.48.72.89,1.37,1.34,2a.64.64,0,0,0,.47.13L41.59,32l4.22-.38,1.68-.15c-.27-.72-.53-1.43-.8-2.13-.16-.44-.33-.88-.5-1.32a.62.62,0,0,1,.39-.92l2.56-1c.37-.14.71-.09.86.32s-.08.63-.42.77L47.44,28l2.38,6.2c.85,0,1.63,0,2.4,0a6.29,6.29,0,0,1,5.52,4.63,6.36,6.36,0,1,1-12.42,2.63,6.17,6.17,0,0,1,3-6.41c.36-.21.43-.41.26-.77S48.28,33.51,48.1,33.06ZM49.23,36a5.11,5.11,0,0,0-2.42,6.53,5.19,5.19,0,0,0,9.62-3.89,5.12,5.12,0,0,0-6.1-3.08c.18.49.36,1,.55,1.46l1.26,3.31a.58.58,0,0,1-1.07.46,2.62,2.62,0,0,1-.15-.39Zm-13.56.35c-.8,1.45-1.58,2.86-2.35,4.28-.21.37-.46.67-.91.42s-.33-.62-.13-1c.32-.56.63-1.12.94-1.69l1.42-2.59a5.2,5.2,0,1,0,1,.57Zm2.21-2.83,3.42,5.07,5.52-5.86Z"/></svg>