<svg id="Layer_1" data-name="Layer 1" xmlns="http://www.w3.org/2000/svg" viewBox="0 0 80 80"><defs><style>.cls-1{fill:#f5ebe2;}.cls-2,.cls-4{fill:none;stroke:#000;stroke-linecap:round;stroke-miterlimit:10;}.cls-2{stroke-width:3px;}.cls-3{fill:#ee5637;}.cls-4{stroke-width:2px;}</style></defs><circle class="cls-1" cx="40" cy="40" r="39.5"/><path d="M40,1A39,39,0,1,1,1,40,39.05,39.05,0,0,1,40,1m0-1A40,40,0,1,0,80,40,40,40,0,0,0,40,0Z"/><line class="cls-2" x1="40.5" y1="35.5" x2="40.5" y2="61.5"/><path class="cls-3" d="M52.25,26.75a11,11,0,1,1-11-11A11,11,0,0,1,52.25,26.75Z"/><path class="cls-4" d="M30.25,26.75a11,11,0,0,1,22,0A10.42,10.42,0,0,1,40,37"/><circle cx="41" cy="68" r="3"/></svg>