<svg id="Layer_1" data-name="Layer 1" xmlns="http://www.w3.org/2000/svg" viewBox="0 0 80 80"><defs><style>.cls-1{fill:#2a5dcb;}.cls-2{fill:#ee5637;}</style></defs><circle class="cls-1" cx="40" cy="40" r="39.5"/><path d="M40,1A39,39,0,1,1,1,40,39.05,39.05,0,0,1,40,1m0-1A40,40,0,1,0,80,40,40,40,0,0,0,40,0Z"/><path class="cls-2" d="M19.85,64.42A1.58,1.58,0,0,0,21.43,66h38a1.58,1.58,0,0,0,1.58-1.58V59.55H19.85Z"/><path class="cls-2" d="M40.45,24.58a3.4,3.4,0,0,0-.91.13C38.55,25,38,25.81,35,27c-3.53,1.4-4.63.9-5.75,2.23S28.83,31.29,28,34c-1,3.27-3.81,4.08-3.4,6.43.29,1.66,2.13,1.68,2.4,3.57.24,1.69-1.16,2.18-1,4s1.88,2.41,2,4c.07,1-.48,2.45-3.4,4.39H56.3c-1.68-3-1.64-5-1.3-6.39.54-2.12,2-3,2-5,0-1.73-2-1-2-4s1.42-4.38,1-6c-.65-2.54-5-2-6-5-.64-1.84.81-2.68,0-4C48.87,24.15,45.13,24.34,40.45,24.58Z"/><path class="cls-2" d="M40.34,21.41a1.59,1.59,0,0,0,1.59-1.58V13.49a1.59,1.59,0,1,0-3.17,0v6.34A1.58,1.58,0,0,0,40.34,21.41Z"/><path class="cls-2" d="M27.87,23.65a1.58,1.58,0,0,0,2.74-1.58l-3.17-5.49a1.58,1.58,0,0,0-2.74,1.58Z"/><path class="cls-2" d="M22.51,31.83a1.57,1.57,0,0,0-.58-2.16L16.44,26.5a1.58,1.58,0,1,0-1.59,2.74l5.49,3.17A1.59,1.59,0,0,0,22.51,31.83Z"/><path class="cls-2" d="M50.87,24.23A1.58,1.58,0,0,0,53,23.65l3.17-5.49a1.58,1.58,0,1,0-2.74-1.58l-3.17,5.49A1.58,1.58,0,0,0,50.87,24.23Z"/><path class="cls-2" d="M66.63,27.08a1.59,1.59,0,0,0-2.17-.58L59,29.67a1.58,1.58,0,1,0,1.59,2.74l5.49-3.17A1.58,1.58,0,0,0,66.63,27.08Z"/></svg>