<svg id="Layer_1" data-name="Layer 1" xmlns="http://www.w3.org/2000/svg" viewBox="0 0 80 80"><defs><style>.cls-1{fill:#ffe4ad;}.cls-2{fill:#ee5637;}.cls-3{fill:#2a5dcb;}</style></defs><circle class="cls-1" cx="40" cy="40" r="39.5"/><path d="M40,1A39,39,0,1,1,1,40,39.05,39.05,0,0,1,40,1m0-1A40,40,0,1,0,80,40,40,40,0,0,0,40,0Z"/><path class="cls-2" d="M57.42,25.58a2,2,0,0,0-2.5-.24c-3,2-17.75,12.13-19.35,13.72a5.91,5.91,0,0,0,4.19,10.09,5.87,5.87,0,0,0,4.18-1.73C45.53,45.83,55.64,31,57.66,28.08A2,2,0,0,0,57.42,25.58ZM41.15,44.64a2,2,0,1,1-2.79-2.79c.62-.61,4.82-3.61,10-7.2C44.76,39.82,41.76,44,41.15,44.64Z"/><path class="cls-3" d="M23.61,52.41,21.18,53.6a21.16,21.16,0,0,1-1.33-17.92L22.64,37a2,2,0,0,0,.85.19,2,2,0,0,0,.85-3.75l-2.75-1.32A21.34,21.34,0,0,1,37.79,22v3a2,2,0,0,0,3.94,0V22a21.33,21.33,0,0,1,6.78,1.79,2,2,0,0,0,1.62-3.6,25.22,25.22,0,0,0-31.34,37,2,2,0,0,0,1.64.88,2,2,0,0,0,.87-.2l4-2a2,2,0,1,0-1.73-3.55Z"/><path class="cls-3" d="M62.77,32.87a2,2,0,1,0-3.59,1.62,21.19,21.19,0,0,1-.85,19.13l-2.54-1.21A2,2,0,1,0,54.09,56l4.15,2a2,2,0,0,0,2.48-.69,25.13,25.13,0,0,0,2.05-24.38Z"/></svg>