<svg id="Layer_1" data-name="Layer 1" xmlns="http://www.w3.org/2000/svg" viewBox="0 0 80 80"><defs><style>.cls-1{fill:#f85299;}.cls-2{fill:#ffe4ad;}</style></defs><circle class="cls-1" cx="40" cy="40" r="39.5"/><path d="M40,1A39,39,0,1,1,1,40,39.05,39.05,0,0,1,40,1m0-1A40,40,0,1,0,80,40,40,40,0,0,0,40,0Z"/><rect class="cls-2" x="32.68" y="17" width="5.13" height="50"/><polygon class="cls-2" points="21.15 31.2 25.25 20.11 54.76 31.04 61.96 40 50.66 42.12 21.15 31.2"/><path d="M25.55,20.76l28.91,10.7,6.59,8.21L50.7,41.61,21.79,30.9l3.76-10.14M25,19.47l-4.45,12,30.1,11.15,12.26-2.3-7.81-9.72L25,19.47Z"/></svg>