<svg id="Layer_1" data-name="Layer 1" xmlns="http://www.w3.org/2000/svg" viewBox="0 0 80 80"><defs><style>.cls-1{fill:#ffd4d6;}.cls-2{fill:#2a5dcb;}.cls-3,.cls-9{fill:none;stroke-miterlimit:10;}.cls-3{stroke:#f85299;}.cls-4{fill:#fdc2db;}.cls-5{fill:#f85299;}.cls-6{fill:#fb97c2;}.cls-7{fill:#fba8cc;}.cls-8{fill:#fdd4e5;}.cls-9{stroke:#2a5dcb;}</style></defs><circle class="cls-1" cx="40" cy="40" r="39.5"/><path d="M40,1A39,39,0,1,1,1,40,39.05,39.05,0,0,1,40,1m0-1A40,40,0,1,0,80,40,40,40,0,0,0,40,0Z"/><rect class="cls-2" x="10" y="38" width="47" height="7"/><rect class="cls-2" x="59" y="38" width="3" height="7"/><rect class="cls-2" x="63" y="38" width="3" height="7"/><line class="cls-3" x1="18.01" y1="60.77" x2="37.7" y2="41.62"/><path class="cls-4" d="M17.72,61.05a16.1,16.1,0,0,1-6.3-.21l6-5.84A13.9,13.9,0,0,0,24,55Z"/><path class="cls-4" d="M24,55a14.41,14.41,0,0,0-.22,6.56l-6,5.83a15.92,15.92,0,0,1-.06-6.3Z"/><path class="cls-5" d="M17.77,54.66a13.9,13.9,0,0,0,6.57,0,14.41,14.41,0,0,0-.22,6.56l-.81.79a15.92,15.92,0,0,1-.06-6.3,15.91,15.91,0,0,1-6.3-.21Z"/><path class="cls-6" d="M15.83,56.55a14,14,0,0,0,6.56,0,14.4,14.4,0,0,0-.21,6.56l-.81.79a15.92,15.92,0,0,1-.06-6.3,16.1,16.1,0,0,1-6.3-.21Z"/><path class="cls-7" d="M13.89,58.44a14,14,0,0,0,6.56,0A14.54,14.54,0,0,0,20.23,65l-.8.78a15.68,15.68,0,0,1-.06-6.29,16.1,16.1,0,0,1-6.3-.21Z"/><path class="cls-8" d="M12,60.33a14.12,14.12,0,0,0,6.56,0,14.54,14.54,0,0,0-.22,6.56l-.8.78a15.68,15.68,0,0,1-.06-6.29,16.1,16.1,0,0,1-6.3-.22Z"/><line class="cls-3" x1="40.5" y1="38.5" x2="56.46" y2="22.54"/><path class="cls-5" d="M55.58,23.42l-2.87-.7,0-.1,4.06-1.75L60.5,18.5l-2.37,3.71-1.75,4.06-.1,0Z"/><path class="cls-9" d="M68.5,19.5c-2.76,2.68-3.17,4.66-3,6,.37,2.93,3.67,3.92,4,7a6.9,6.9,0,0,1-2,5"/><path class="cls-9" d="M71.5,24.5a5.91,5.91,0,0,0-1,4c.38,2.29,2.37,2.94,3,5,.38,1.24.36,3.27-2,6.5"/></svg>