<svg id="Layer_1" data-name="Layer 1" xmlns="http://www.w3.org/2000/svg" viewBox="0 0 80 80"><defs><style>.cls-1,.cls-5,.cls-7{fill:#008c81;}.cls-1,.cls-2,.cls-5,.cls-6{stroke:#000;stroke-miterlimit:10;}.cls-1,.cls-2{stroke-width:0.75px;}.cls-2,.cls-6{fill:none;}.cls-3{fill:#ffe4ad;}.cls-4{fill:#ffc600;}</style></defs><path class="cls-1" d="M38.53,13.46a2.7,2.7,0,0,1,.13-1.25,2.61,2.61,0,0,1,2.91-1.7,2,2,0,0,1,.12-.63A2.39,2.39,0,0,1,44,8.44a3.28,3.28,0,0,1,1.43.18,2.62,2.62,0,0,1,1.84,3.17,1.86,1.86,0,0,1-.31.55,2.62,2.62,0,0,1,1.13,3.18,2.7,2.7,0,0,1-.7,1,2.62,2.62,0,0,1,.46,2.61,2.59,2.59,0,0,1-3.3,1.61l-.15-.07a2.56,2.56,0,0,1-.15.89A1.86,1.86,0,0,1,42.12,23a1.25,1.25,0,0,1-.55-.42,2.33,2.33,0,0,1-1.2-.09,2.37,2.37,0,0,1-1-.73,1.27,1.27,0,0,1-.92,0,1.86,1.86,0,0,1-.74-2.45,2.45,2.45,0,0,1,.46-.79l-.16,0a2.6,2.6,0,0,1-1.5-3.35A2.65,2.65,0,0,1,38.53,13.46Z"/><path class="cls-2" d="M45,10.48s-2.93,0-2.93,5"/><path class="cls-2" d="M45.34,13.08s-2.16-.28-3.06,1"/><circle class="cls-3" cx="40" cy="40" r="39.5"/><path d="M40,1A39,39,0,1,1,1,40,39.05,39.05,0,0,1,40,1m0-1A40,40,0,1,0,80,40,40,40,0,0,0,40,0Z"/><rect class="cls-4" x="31.5" y="43.5" width="17" height="3"/><path d="M48,44v2H32V44H48m1-1H31v4H49V43Z"/><path class="cls-5" d="M36.7,19.16a4.53,4.53,0,0,0-.6-2.05,4.44,4.44,0,0,0-5.4-2,3.24,3.24,0,0,0-.38-1A4,4,0,0,0,26,12.38a5.68,5.68,0,0,0-2.35.73c-2.29,1.33-3.25,4-2.15,5.87a3.56,3.56,0,0,0,.7.84A4.49,4.49,0,0,0,22.71,27a4.5,4.5,0,0,0,0,4.53,4.43,4.43,0,0,0,6,1.7A1.88,1.88,0,0,0,29,33.1a4.23,4.23,0,0,0,.53,1.46c1,1.67,2.77,2.44,4,1.71a2,2,0,0,0,.8-.87,3.78,3.78,0,0,0,2-.51,3.91,3.91,0,0,0,1.46-1.53,2.21,2.21,0,0,0,1.56-.22c1.25-.72,1.48-2.67.51-4.34a4.5,4.5,0,0,0-1-1.18,1.92,1.92,0,0,0,.25-.12,4.42,4.42,0,0,0,1.52-6.08A4.53,4.53,0,0,0,36.7,19.16Z"/><path class="cls-6" d="M24.88,16.1a24.18,24.18,0,0,1,9.75,12.84"/><path class="cls-6" d="M25.15,20.57s3.53-1.12,5.44.78"/><path class="cls-5" d="M44.65,18.89a4.55,4.55,0,0,1,.69-2,4.45,4.45,0,0,1,5.47-1.76,3.52,3.52,0,0,1,.43-1,4.07,4.07,0,0,1,4.41-1.54A5.68,5.68,0,0,1,58,13.4c2.23,1.43,3.08,4.09,1.89,6a3.29,3.29,0,0,1-.73.8,4.46,4.46,0,0,1,.72,5.71,4.59,4.59,0,0,1-1.56,1.48,4.5,4.5,0,0,1-.2,4.52A4.43,4.43,0,0,1,52,33.31a1.73,1.73,0,0,1-.21-.17,4.67,4.67,0,0,1-.59,1.44c-1,1.63-2.87,2.32-4.09,1.54a2,2,0,0,1-.76-.9,3.93,3.93,0,0,1-2-.6A3.85,3.85,0,0,1,43,33a2.21,2.21,0,0,1-1.54-.28C40.2,32,40.05,30,41.09,28.39a4.49,4.49,0,0,1,1-1.15c-.08,0-.16-.07-.24-.12A4.43,4.43,0,0,1,40.64,21,4.51,4.51,0,0,1,44.65,18.89Z"/><path class="cls-6" d="M56.59,16.33A24.22,24.22,0,0,0,46.3,28.75"/><path class="cls-6" d="M56.13,20.78s-3.48-1.26-5.46.55"/><path class="cls-1" d="M43.08,20.46A2.7,2.7,0,0,0,43,19.21,2.61,2.61,0,0,0,40,17.51a2,2,0,0,0-.12-.63,2.37,2.37,0,0,0-2.32-1.44,3.31,3.31,0,0,0-1.44.18,2.62,2.62,0,0,0-1.84,3.17,2.11,2.11,0,0,0,.31.55,2.62,2.62,0,0,0-1.13,3.18,2.7,2.7,0,0,0,.7,1A2.65,2.65,0,0,0,37,27.78l.15-.07a2.56,2.56,0,0,0,.15.89A1.86,1.86,0,0,0,39.49,30a1.25,1.25,0,0,0,.55-.42,2.32,2.32,0,0,0,1.2-.09,2.37,2.37,0,0,0,1-.73,1.27,1.27,0,0,0,.92,0,1.85,1.85,0,0,0,.74-2.45,2.45,2.45,0,0,0-.46-.79l.16,0a2.59,2.59,0,0,0,1.5-3.35A2.65,2.65,0,0,0,43.08,20.46Z"/><path class="cls-2" d="M36.58,17.48s2.92,0,2.92,5"/><path class="cls-2" d="M36.28,20.08s2.15-.28,3,1"/><path class="cls-4" d="M40.35,44.62c-10.57,0-19.2-7.63-19.5-17.12h39C59.54,37,50.91,44.62,40.35,44.62Z"/><path d="M59.31,28c-.57,9-8.86,16.12-19,16.12S22,37,21.38,28H59.31m1-1h-40c0,10,9,18.12,20,18.12s20-8.11,20-18.12Z"/><line class="cls-2" x1="36.5" y1="46.5" x2="32.5" y2="58.5"/><path class="cls-2" d="M43.57,47S39.3,56,47.5,58.5"/><rect x="27" y="58" width="9" height="3" rx="1.38"/><rect x="44.48" y="56.67" width="8.96" height="2.99" rx="1.21" transform="translate(-22.52 32.27) rotate(-30)"/><path class="cls-7" d="M14.42,67.27A23.27,23.27,0,0,0,13,60.71l3.54,2.83A22.21,22.21,0,0,0,16.16,60c2.88,4.25,2.5,3.54,2.5,3.54s.71-2.83,2.85-3.54c-.72,3.54,0,4.25,0,4.25A13.29,13.29,0,0,1,24.11,60l-.27,7.08Z"/><path class="cls-7" d="M30.42,76.27A23.27,23.27,0,0,0,29,69.71l3.54,2.83A22.21,22.21,0,0,0,32.16,69c2.88,4.25,2.5,3.54,2.5,3.54s.71-2.83,2.85-3.54c-.72,3.54,0,4.25,0,4.25A13.29,13.29,0,0,1,40.11,69l-.27,7.08Z"/><path class="cls-7" d="M60.42,56.27A23.27,23.27,0,0,0,59,49.71l3.54,2.83A22.21,22.21,0,0,0,62.16,49c2.88,4.25,2.5,3.54,2.5,3.54s.71-2.83,2.85-3.54c-.72,3.54,0,4.25,0,4.25A13.29,13.29,0,0,1,70.11,49l-.27,7.08Z"/><path class="cls-7" d="M54.42,69.27A23.27,23.27,0,0,0,53,62.71l3.54,2.83A22.21,22.21,0,0,0,56.16,62c2.88,4.25,2.5,3.54,2.5,3.54s.71-2.83,2.85-3.54c-.72,3.54,0,4.25,0,4.25A13.29,13.29,0,0,1,64.11,62l-.27,7.08Z"/></svg>