<svg id="Layer_1" data-name="Layer 1" xmlns="http://www.w3.org/2000/svg" viewBox="0 0 80 80"><defs><style>.cls-1{fill:#f85299;}.cls-2{fill:#ffd4d6;}</style></defs><circle class="cls-1" cx="40" cy="40" r="39.5"/><path d="M40,1A39,39,0,1,1,1,40,39.05,39.05,0,0,1,40,1m0-1A40,40,0,1,0,80,40,40,40,0,0,0,40,0Z"/><rect class="cls-2" x="10.99" y="25.62" width="21.31" height="1.87" transform="translate(-12.25 21.59) rotate(-42.48)"/><polygon class="cls-2" points="19.79 17.9 19.77 19.77 28.98 19.84 28.24 29.01 30.1 29.16 31 17.98 19.79 17.9"/><rect class="cls-2" x="42.78" y="32.17" width="1.87" height="21.31" transform="translate(-11.26 15.94) rotate(-18.35)"/><polygon class="cls-2" points="35.06 40.99 36.76 41.76 40.58 33.39 48.66 37.82 49.55 36.18 39.72 30.79 35.06 40.99"/><rect class="cls-2" x="55.05" y="40.97" width="21.31" height="1.87" transform="translate(5.75 91.68) rotate(-72.23)"/><polygon class="cls-2" points="71.61 48.49 70.7 46.86 62.67 51.37 58.76 43.03 57.07 43.83 61.83 53.98 71.61 48.49"/><rect class="cls-2" x="42.47" y="55.02" width="1.87" height="21.31" transform="translate(-29.34 95.76) rotate(-79.01)"/><polygon class="cls-2" points="49.24 59.03 47.73 60.13 53.16 67.56 45.34 72.43 46.33 74.02 55.85 68.09 49.24 59.03"/><rect class="cls-2" x="13.75" y="50.93" width="21.31" height="1.87"/><polygon class="cls-2" points="19.94 59.5 21.21 58.13 14.47 51.87 21.21 45.6 19.94 44.23 11.72 51.87 19.94 59.5"/><rect class="cls-2" x="53.67" y="5.57" width="1.87" height="21.31" transform="translate(7.68 48.53) rotate(-51.09)"/><polygon class="cls-2" points="62.88 13.1 61.03 13.36 62.34 22.47 53.16 23.11 53.29 24.98 64.47 24.19 62.88 13.1"/></svg>