<svg id="Layer_1" data-name="Layer 1" xmlns="http://www.w3.org/2000/svg" viewBox="0 0 80 80"><defs><style>.cls-1{fill:#008c81;}.cls-2{fill:#fdc48b;}.cls-3{fill:#ee5637;}.cls-3,.cls-5,.cls-6{stroke:#000;stroke-miterlimit:10;}.cls-4{fill:#ffe4ad;}.cls-5,.cls-6{fill:none;}.cls-6{stroke-width:3px;}</style></defs><circle class="cls-1" cx="40" cy="40" r="39.5"/><path d="M40,1A39,39,0,1,1,1,40,39.05,39.05,0,0,1,40,1m0-1A40,40,0,1,0,80,40,40,40,0,0,0,40,0Z"/><rect class="cls-2" x="14.5" y="28.5" width="52" height="30" rx="4.12"/><path d="M62.38,29A3.63,3.63,0,0,1,66,32.62V54.38A3.63,3.63,0,0,1,62.38,58H18.62A3.63,3.63,0,0,1,15,54.38V32.62A3.63,3.63,0,0,1,18.62,29H62.38m0-1H18.62A4.63,4.63,0,0,0,14,32.62V54.38A4.63,4.63,0,0,0,18.62,59H62.38A4.63,4.63,0,0,0,67,54.38V32.62A4.63,4.63,0,0,0,62.38,28Z"/><path class="cls-3" d="M28.5,28.5V26.68a2.19,2.19,0,0,1,2.18-2.18H50.32a2.19,2.19,0,0,1,2.18,2.18V28.5h4V22.68a2.19,2.19,0,0,0-2.18-2.18H26.68a2.19,2.19,0,0,0-2.18,2.18V28.5Z"/><rect class="cls-4" x="20.5" y="44.5" width="27" height="7" transform="translate(-12.56 12.06) rotate(-17.02)"/><path d="M45.55,41.33l1.76,5.73L22.45,54.67l-1.76-5.73,24.86-7.61m.67-1.25L19.44,48.27l2.34,7.65,26.78-8.19-2.34-7.65Z"/><line class="cls-5" x1="22.42" y1="49.45" x2="23.59" y2="53.28"/><line class="cls-5" x1="24.33" y1="48.87" x2="25.5" y2="52.69"/><line class="cls-5" x1="26.24" y1="48.28" x2="27.41" y2="52.11"/><line class="cls-5" x1="28.16" y1="47.7" x2="29.33" y2="51.52"/><line class="cls-5" x1="33.89" y1="45.94" x2="35.06" y2="49.77"/><line class="cls-5" x1="35.81" y1="45.36" x2="36.98" y2="49.18"/><line class="cls-5" x1="36.76" y1="45.06" x2="37.93" y2="48.89"/><line class="cls-6" x1="31.02" y1="46.82" x2="32.19" y2="50.64"/><line class="cls-6" x1="39.63" y1="44.18" x2="40.8" y2="48.01"/></svg>