<svg id="Layer_1" data-name="Layer 1" xmlns="http://www.w3.org/2000/svg" viewBox="0 0 80 80"><defs><style>.cls-1{fill:#f85299;}.cls-2{fill:#2a5dcb;}</style></defs><path d="M40,1A39,39,0,1,1,1,40,39.05,39.05,0,0,1,40,1m0-1A40,40,0,1,0,80,40,40,40,0,0,0,40,0Z"/><path class="cls-1" d="M39.5,79.5a39.5,39.5,0,0,1,0-79Z"/><path d="M39,1V79A39,39,0,0,1,39,1m1-1a40,40,0,0,0,0,80V0Z"/><path class="cls-2" d="M40.5.5a39.5,39.5,0,0,1,0,79Z"/><path d="M41,1a39,39,0,0,1,0,78V1M40,0V80A40,40,0,0,0,40,0Z"/></svg>