<svg id="Layer_1" data-name="Layer 1" xmlns="http://www.w3.org/2000/svg" viewBox="0 0 80 80"><defs><style>.cls-1{fill:#2a5dcb;}.cls-2{fill:#fff;}</style></defs><path d="M40,1A39,39,0,1,1,1,40,39.05,39.05,0,0,1,40,1m0-1A40,40,0,1,0,80,40,40,40,0,0,0,40,0Z"/><circle class="cls-1" cx="39.5" cy="40.5" r="27"/><path d="M39.5,14A26.5,26.5,0,1,1,13,40.5,26.53,26.53,0,0,1,39.5,14m0-1A27.5,27.5,0,1,0,67,40.5,27.5,27.5,0,0,0,39.5,13Z"/><path class="cls-2" d="M49.56,46.84A1.72,1.72,0,0,0,47,46.58a29.29,29.29,0,0,1-3.68,2.5c-.4-1.32-.57-3.09-.89-4.51l0-8.17s4.43-.58,5.71-.78a1.52,1.52,0,0,0,1.28-2.17c-.07-.2-1.85-5.3-2.16-6.28a1.71,1.71,0,0,0-2.18-1.25,1.59,1.59,0,0,0-1,2.19c.41,1.35,1.52,4.62,1.52,4.62l-3.88.53L35.5,31.91a10.78,10.78,0,0,1-3-6.33A1.63,1.63,0,0,0,30.58,24a1.75,1.75,0,0,0-1.46,2.07A15.3,15.3,0,0,0,34.39,36v8.09c-2,5-2,10.14.9,14.71a2,2,0,0,0,1.67.92,2,2,0,0,0,1.66-3,11.9,11.9,0,0,1-1.54-9.18,1.22,1.22,0,0,1,1.24-.95h0a1.22,1.22,0,0,1,1.15.95c.35,1.53.53,3,.79,4A2.41,2.41,0,0,0,43.75,53a35.55,35.55,0,0,0,5.51-3.41A2,2,0,0,0,49.56,46.84Z"/><circle class="cls-2" cx="39.2" cy="28.67" r="3.02"/></svg>