<svg id="Layer_1" data-name="Layer 1" xmlns="http://www.w3.org/2000/svg" viewBox="0 0 80 80"><defs><style>.cls-1{fill:#2a5dcb;}.cls-2,.cls-3{fill:none;stroke:#000;}.cls-2{stroke-miterlimit:10;}.cls-4{fill:#fff;}</style></defs><circle class="cls-1" cx="40" cy="40" r="39.5"/><path d="M40,1A39,39,0,1,1,1,40,39.05,39.05,0,0,1,40,1m0-1A40,40,0,1,0,80,40,40,40,0,0,0,40,0Z"/><polyline class="cls-2" points="16.5 71 16.5 30.5 55.5 30.5 55.5 76"/><line class="cls-2" x1="16.5" y1="30.58" x2="27.75" y2="21.78"/><line class="cls-2" x1="54.5" y1="30.58" x2="65.75" y2="21.78"/><line class="cls-2" x1="65.5" y1="21.5" x2="65.5" y2="69.5"/><line class="cls-2" x1="27.5" y1="21.5" x2="65.5" y2="21.5"/><rect class="cls-2" x="27.5" y="39.5" width="18" height="18"/><line class="cls-2" x1="27.5" y1="57.5" x2="32.5" y2="52.5"/><line class="cls-3" x1="45" y1="52.5" x2="32.5" y2="52.5"/><line class="cls-2" x1="32.5" y1="52.5" x2="32.5" y2="40"/><rect class="cls-4" x="33" y="40" width="12" height="12"/></svg>