<svg id="Layer_1" data-name="Layer 1" xmlns="http://www.w3.org/2000/svg" viewBox="0 0 80 80"><defs><style>.cls-1{fill:#fdc48b;}.cls-2{fill:#008c81;}.cls-3{fill:#ee5637;}</style></defs><circle class="cls-1" cx="40" cy="40" r="39.5"/><path d="M40,1A39,39,0,1,1,1,40,39.05,39.05,0,0,1,40,1m0-1A40,40,0,1,0,80,40,40,40,0,0,0,40,0Z"/><g id="oETCrd"><path class="cls-2" d="M36.4,36.67c1.14,0,2.27,0,3.4,0a.48.48,0,0,0,.43-.21C41.62,34.72,43,33,44.39,31.27a4.68,4.68,0,0,1,3.71-1.79c3.16,0,6.33,0,9.5,0a3.57,3.57,0,0,1,.47,0,3.67,3.67,0,0,1,2.9,2c1,1.81,1.93,3.63,2.89,5.45a1.52,1.52,0,0,1,.1,1.2,1.82,1.82,0,0,1-1.46,1.26,1.7,1.7,0,0,1-1.81-1c-.8-1.52-1.59-3-2.37-4.57a.35.35,0,0,0-.35-.23H54.33l-.24,0c0,.12.06.21.1.3.79,1.95,1.59,3.9,2.36,5.86a6.43,6.43,0,0,1,.72,2.26,3,3,0,0,0,0,.43c.08.88.17,1.75.25,2.62s.16,1.79.24,2.68c.1,1.1.21,2.2.31,3.29,0,.33,0,.35.36.35h8.12a3.12,3.12,0,0,1,2.47,2c.16.38.3.77.45,1.16s.23.6.35.93H56.21a3.43,3.43,0,0,1-.56,0A1.84,1.84,0,0,1,54.13,54c-.09-.59-.13-1.19-.19-1.79s-.14-1.26-.2-1.88-.17-1.54-.26-2.31-.15-1.55-.24-2.33c0-.2-.05-.4-.08-.6h-.07l-.22.45L45.73,60.37A2.64,2.64,0,0,1,43.16,62H39.69c.05-.09.07-.16.1-.22q1.05-2.17,2.11-4.37,3.41-7,6.8-14a.55.55,0,0,0,0-.47l-2.67-6.66c0-.08-.07-.14-.13-.27l-.16.22c-.85,1-1.71,2.07-2.55,3.11a3.79,3.79,0,0,1-3.05,1.47H36.45"/><path class="cls-2" d="M65.57,56.9,36.43,40.76c1.23,0,2.47,0,3.7,0a3.76,3.76,0,0,0,3-1.46c.84-1,1.7-2.08,2.54-3.11l.17-.22c.06.13.1.19.13.27.89,2.22,1.77,4.44,2.66,6.65a.52.52,0,0,1,0,.47q-3.39,7-6.79,14l-2.1,4.37-.1.21.23,0h3.23a2.65,2.65,0,0,0,2.57-1.62Q49.25,53,52.81,45.6c.07-.15.15-.3.23-.45h.06l.09.6c.08.77.15,1.55.24,2.33s.17,1.53.25,2.3.13,1.26.2,1.88.1,1.2.19,1.79a1.86,1.86,0,0,0,1.51,1.49,5.46,5.46,0,0,0,.57,0H69.77c-.12-.33-.23-.63-.35-.93s-.29-.77-.45-1.15a3.08,3.08,0,0,0-2.46-2,1.94,1.94,0,0,0-.34,0H58.4c-.32,0-.33,0-.36-.34l-.3-3.3c-.09-.89-.16-1.78-.24-2.67s-.17-1.74-.26-2.62c0-.14,0-.28,0-.42a6.38,6.38,0,0,0-.73-2.26c-.77-2-1.56-3.91-2.35-5.86l-.1-.3.24,0h3.64a.35.35,0,0,1,.34.23l2.36,4.57a1.72,1.72,0,0,0,1.82.95,1.81,1.81,0,0,0,1.45-1.26,1.52,1.52,0,0,0-.1-1.2c-1-1.82-1.9-3.64-2.88-5.45a3.69,3.69,0,0,0-2.89-2l-.47,0c-3.17,0-6.33,0-9.49,0a4.69,4.69,0,0,0-3.7,1.79C43,33,41.58,34.75,40.2,36.48a.47.47,0,0,1-.43.21H36.38ZM42,25.38a3.8,3.8,0,1,0,3.93-3.78A3.8,3.8,0,0,0,42,25.38Z"/><path class="cls-2" d="M42,25.38a3.8,3.8,0,1,1,3.66,3.82A3.79,3.79,0,0,1,42,25.38Z"/></g><rect class="cls-3" x="12.37" y="37.51" width="25.69" height="2.25"/><polygon class="cls-3" points="19.83 47.83 21.36 46.19 13.24 38.63 21.36 31.08 19.83 29.43 9.93 38.63 19.83 47.83"/></svg>