<svg id="Layer_1" data-name="Layer 1" xmlns="http://www.w3.org/2000/svg" viewBox="0 0 80 80"><defs><style>.cls-1{fill:#ffc600;}</style></defs><circle class="cls-1" cx="40" cy="40" r="39.5"/><path d="M40,1A39,39,0,1,1,1,40,39.05,39.05,0,0,1,40,1m0-1A40,40,0,1,0,80,40,40,40,0,0,0,40,0Z"/><path d="M39.56,12.87H34.05V23.18a6.32,6.32,0,0,0-5.32-2.53c-4.58,0-8.18,3.61-8.18,9.93,0,7,4.09,9.49,7.85,9.49a6.21,6.21,0,0,0,5.65-3c0,.6.08,1.49.19,2.64h5.32ZM30.22,24.33c4.06,0,4.06,4.62,4.06,5.81,0,4.28-1.83,6.32-4.32,6.32-3.79,0-3.79-4.72-3.79-5.69C26.17,29.28,26.24,24.33,30.22,24.33Z"/><path d="M42.27,12.87h5.5V23.18a6.33,6.33,0,0,1,5.32-2.53c4.58,0,8.19,3.61,8.19,9.93,0,7-4.09,9.49-7.85,9.49a6.22,6.22,0,0,1-5.66-3c0,.6-.07,1.49-.18,2.64H42.27Zm9.34,11.46c-4.06,0-4.06,4.62-4.06,5.81,0,4.28,1.82,6.32,4.32,6.32,3.79,0,3.79-4.72,3.79-5.69C55.66,29.28,55.59,24.33,51.61,24.33Z"/><path d="M42.27,68h5.5V57.69a6.33,6.33,0,0,0,5.32,2.53c4.58,0,8.19-3.61,8.19-9.93,0-7-4.09-9.49-7.85-9.49a6.22,6.22,0,0,0-5.66,3c0-.59-.07-1.49-.18-2.64H42.27Zm9.34-11.46c-4.06,0-4.06-4.62-4.06-5.81,0-4.28,1.82-6.32,4.32-6.32,3.79,0,3.79,4.72,3.79,5.69C55.66,51.59,55.59,56.54,51.61,56.54Z"/><path d="M39.56,68H34.05V57.69a6.32,6.32,0,0,1-5.32,2.53c-4.58,0-8.18-3.61-8.18-9.93,0-7,4.09-9.49,7.85-9.49a6.21,6.21,0,0,1,5.65,3c0-.59.08-1.49.19-2.64h5.32ZM30.22,56.54c4.06,0,4.06-4.62,4.06-5.81,0-4.28-1.83-6.32-4.32-6.32-3.79,0-3.79,4.72-3.79,5.69C26.17,51.59,26.24,56.54,30.22,56.54Z"/></svg>