<svg id="Layer_1" data-name="Layer 1" xmlns="http://www.w3.org/2000/svg" viewBox="0 0 81 81"><defs><style>.cls-1{fill:#ffc600;stroke-miterlimit:10;}.cls-1,.cls-2,.cls-3{stroke:#000;}.cls-2{fill:#ffe4ad;}.cls-2,.cls-3{stroke-linecap:round;stroke-linejoin:round;}.cls-3{fill:#ee5637;}</style></defs><circle class="cls-1" cx="40.5" cy="40.5" r="40"/><rect class="cls-2" x="16" y="39" width="48" height="10" rx="5" transform="translate(-9.8 11.5) rotate(-14.6)"/><rect class="cls-3" x="34.02" y="39.13" width="11" height="10" transform="translate(-9.84 11.38) rotate(-14.6)"/><path d="M36.87,48.22a.5.5,0,0,0,0-1,.5.5,0,0,0,0,1Z"/><path d="M38.57,46a.5.5,0,0,0,0-1,.5.5,0,0,0,0,1Z"/><path d="M37.33,43.83a.5.5,0,0,0,0-1,.5.5,0,0,0,0,1Z"/><path d="M35.87,42.34a.5.5,0,0,0,0-1,.5.5,0,0,0,0,1Z"/><path d="M40.77,41.2a.5.5,0,0,0,0-1,.5.5,0,0,0,0,1Z"/><path d="M40.07,43.11a.5.5,0,0,0,0-1,.5.5,0,0,0,0,1Z"/><path d="M41.57,45.26a.5.5,0,0,0,0-1,.5.5,0,0,0,0,1Z"/><path d="M41.21,47.48a.5.5,0,0,0,0-1,.5.5,0,0,0,0,1Z"/><path d="M43.27,47.21a.5.5,0,0,0,0-1,.5.5,0,0,0,0,1Z"/><path d="M42.7,43a.5.5,0,0,0,0-1,.5.5,0,0,0,0,1Z"/><path d="M36.09,45.22a.5.5,0,0,0,0-1,.5.5,0,0,0,0,1Z"/><rect class="cls-2" x="22" y="33" width="48" height="10" rx="5" transform="translate(34.11 -20.47) rotate(38.95)"/><rect class="cls-3" x="40.11" y="32.69" width="11" height="10" transform="translate(33.83 -20.3) rotate(38.95)"/><path d="M41.15,38.19a.5.5,0,0,0,0-1,.5.5,0,0,0,0,1Z"/><path d="M43.91,38.26a.5.5,0,0,0,0-1,.5.5,0,0,0,0,1Z"/><path d="M45,36a.5.5,0,0,0,0-1,.5.5,0,0,0,0,1Z"/><path d="M45.28,33.9a.5.5,0,0,0,0-1,.5.5,0,0,0,0,1Z"/><path d="M49.12,37.16a.5.5,0,0,0,0-1,.5.5,0,0,0,0,1Z"/><path d="M47.16,37.74a.5.5,0,0,0,0-1,.5.5,0,0,0,0,1Z"/><path d="M46.32,40.21a.5.5,0,0,0,0-1,.5.5,0,0,0,0,1Z"/><path d="M44.32,41.25a.5.5,0,0,0,0-1,.5.5,0,0,0,0,1Z"/><path d="M45.76,42.75a.5.5,0,0,0,0-1,.5.5,0,0,0,0,1Z"/><path d="M48.84,39.76a.5.5,0,0,0,0-1,.5.5,0,0,0,0,1Z"/><path d="M43.1,35.78a.5.5,0,0,0,0-1,.5.5,0,0,0,0,1Z"/></svg>