<svg id="Layer_1" data-name="Layer 1" xmlns="http://www.w3.org/2000/svg" viewBox="0 0 81 81"><defs><style>.cls-1{fill:#008c81;stroke:#000;stroke-miterlimit:10;}.cls-2{fill:#f5ebe2;}</style></defs><circle class="cls-1" cx="40.5" cy="40.5" r="40"/><rect class="cls-2" x="30" y="25.8" width="21" height="2.5"/><rect class="cls-2" x="31.5" y="21.9" width="18" height="2.5" transform="matrix(1, -0.04, 0.04, 1, -0.91, 1.68)"/><rect class="cls-2" x="33.5" y="18" width="14" height="2.5" transform="translate(1.03 -2.04) rotate(2.92)"/><rect class="cls-2" x="28.5" y="29.7" width="24" height="2.5" transform="matrix(1, 0.05, -0.05, 1, 1.63, -2.02)"/><rect class="cls-2" x="27.5" y="33.6" width="26" height="2.5"/><rect class="cls-2" x="26.5" y="37.5" width="28" height="2.5" transform="translate(-1.55 1.69) rotate(-2.35)"/><rect class="cls-2" x="24.5" y="41.4" width="32" height="2.5" transform="translate(1.13 -1.05) rotate(1.5)"/><rect class="cls-2" x="22.5" y="45.3" width="36" height="2.5"/><rect class="cls-2" x="20.5" y="49.2" width="40" height="2.5" transform="translate(1.34 -1.05) rotate(1.5)"/><rect class="cls-2" x="18.5" y="53.1" width="44" height="2.5" transform="translate(1.44 -1.04) rotate(1.5)"/><rect class="cls-2" x="16.5" y="57" width="48" height="2.5"/></svg>