<svg id="Layer_1" data-name="Layer 1" xmlns="http://www.w3.org/2000/svg" viewBox="0 0 81 81"><defs><style>.cls-1{fill:#ffd4d6;stroke-miterlimit:10;}.cls-1,.cls-2,.cls-3,.cls-4{stroke:#000;}.cls-2{fill:#f85299;}.cls-2,.cls-3,.cls-4{stroke-linejoin:round;stroke-width:0.5px;}.cls-3{fill:none;}.cls-4{fill:#008c81;}</style></defs><circle class="cls-1" cx="40.5" cy="40.5" r="40"/><path class="cls-2" d="M32.6,78.72V1.28C35.21,1.09,38,1,41,1c2.61,0,5.08.12,7.41.28V78.72a25,25,0,0,1-15.81,0Z"/><path class="cls-3" d="M48.41,20.19C59.72,20.79,68,22.71,68,25c0,2.76-12.09,5-27,5s-27-2.24-27-5c0-2.22,7.8-4.1,18.6-4.75"/><path class="cls-4" d="M41,29.5c-14.91,0-27-2.24-27-5v10c0,2.76,12.09,5,27,5s27-2.24,27-5v-10C68,27.26,55.91,29.5,41,29.5Z"/></svg>