<svg id="Layer_1" data-name="Layer 1" xmlns="http://www.w3.org/2000/svg" viewBox="0 0 81 81"><defs><style>.cls-1{fill:#dde6f8;}.cls-1,.cls-3,.cls-4{stroke:#000;}.cls-1,.cls-3{stroke-miterlimit:10;}.cls-2{fill:#2a5dcb;}.cls-4{fill:none;stroke-linecap:round;stroke-linejoin:round;}</style></defs><circle class="cls-1" cx="40.5" cy="40.5" r="40"/><rect class="cls-2" x="13.35" y="42.02" width="59" height="4.01" transform="translate(-17.08 57.52) rotate(-58.46)"/><path d="M56.74,18.52l2.56,1.57L29,69.53,26.41,68,56.74,18.52m-.33-1.37L25,68.28,29.3,70.9,60.68,19.76l-4.27-2.61Z"/><circle cx="44.5" cy="21.5" r="7.5"/><path d="M44.5,14.5a7,7,0,1,1-7,7,7,7,0,0,1,7-7m0-1a8,8,0,1,0,8,8,8,8,0,0,0-8-8Z"/><path class="cls-3" d="M44.5,29.5S46.66,33,44.83,36,28.75,63.93,27.37,64.46C22.63,62.54,22,60,22,60L41,28.67"/><path class="cls-4" d="M32.22,17.57a4.3,4.3,0,0,0,2.15-.65l-2.12,3.52a6.47,6.47,0,0,0,3-1.44"/><path class="cls-4" d="M30.6,9.75a13.94,13.94,0,0,1,3.23-1.37c.14,0,.33-.06.42.06s0,.28,0,.41l-2.29,4.62a4.1,4.1,0,0,0,2.79-1.42"/><path class="cls-4" d="M21.36,10.71A10.74,10.74,0,0,1,25.3,9.08c-.24,2-2.59,3.54-2.14,5.5L26.42,13"/></svg>