<svg id="Layer_1" data-name="Layer 1" xmlns="http://www.w3.org/2000/svg" viewBox="0 0 81 81"><defs><style>.cls-1{fill:#2a5dcb;stroke-miterlimit:10;}.cls-1,.cls-2,.cls-3,.cls-4{stroke:#000;}.cls-2,.cls-4{fill:none;}.cls-2,.cls-3,.cls-4{stroke-linejoin:round;}.cls-3{fill:#f85299;}.cls-4{stroke-width:0.5px;}</style></defs><circle class="cls-1" cx="40.5" cy="40.5" r="40"/><line class="cls-2" x1="21.91" y1="75.93" x2="21.91" y2="47.5"/><line class="cls-2" x1="59.91" y1="75.15" x2="59.91" y2="47.5"/><path class="cls-3" d="M68,52a23.68,23.68,0,0,0-10-3c-6.91-.41-10.79,2.83-18,3-6.71.16-7.92-1.57-15-2-6.43-.39-9.72.49-13,2V22a31.9,31.9,0,0,0,11,2c7.63,0,8.89-2.87,16-3,7.36-.13,8.85,2.89,17,3a34.93,34.93,0,0,0,12-2Z"/><path class="cls-4" d="M18.53,34.41a93.4,93.4,0,0,1,15.16-5.66,89.58,89.58,0,0,0-10.45,6.92,11.28,11.28,0,0,0-3.06,3.1c2.4-1.2,4.82-2.38,7.25-3.52A45,45,0,0,1,38.9,31.16a3.52,3.52,0,0,1,2.18.14c-5.8,3.88-12.37,6.62-17.76,11.06,0,.38.61.35,1,.2,8.1-3.44,16-7.61,24.62-9.35a7.69,7.69,0,0,1,2.57-.2,9.33,9.33,0,0,1-2.53,1.62C42.1,38,35.06,41.11,28.84,45.53a12,12,0,0,0,3-1.21c8.81-4.44,17.73-9.24,27.53-10.38-5.38,4-12,6.06-17.2,10.26-.37.3-.77.72-.65,1.18C46.17,43.8,50.38,41.2,55,39.6A7.77,7.77,0,0,1,58.88,39a5.35,5.35,0,0,1-2.45,2q-4.23,2.25-8.61,4.18a44.47,44.47,0,0,1,9.83-3.72.8.8,0,0,1,.46,0,.56.56,0,0,1,.18.8,1.65,1.65,0,0,1-.75.55"/></svg>