<svg id="Layer_1" data-name="Layer 1" xmlns="http://www.w3.org/2000/svg" viewBox="0 0 80 80"><defs><style>.cls-1{fill:#dde6f8;}.cls-2{fill:#2a5dcb;}.cls-3{fill:none;stroke:#000;stroke-miterlimit:10;}.cls-4{fill:#fff;}</style></defs><circle class="cls-1" cx="40" cy="40" r="39.5"/><path d="M40,1A39,39,0,1,1,1,40,39.05,39.05,0,0,1,40,1m0-1A40,40,0,1,0,80,40,40,40,0,0,0,40,0Z"/><circle class="cls-2" cx="49.6" cy="48" r="17.1"/><path d="M49.6,31.4A16.6,16.6,0,1,1,33,48,16.62,16.62,0,0,1,49.6,31.4m0-1A17.6,17.6,0,1,0,67.2,48,17.6,17.6,0,0,0,49.6,30.4Z"/><path class="cls-3" d="M29.3,34a14.51,14.51,0,0,1,2.81,2.78"/><path class="cls-3" d="M44.13,26a26.07,26.07,0,0,1,.19,3.85v-.76"/><path class="cls-3" d="M62.7,30.28a9.08,9.08,0,0,0-1.85,2.66"/><path class="cls-3" d="M26.82,51.69a11.14,11.14,0,0,1,3.09-.93"/><path class="cls-3" d="M36.22,69.46l2.65-3.39"/><path class="cls-3" d="M32.83,64.66l2.94-1.87"/><ellipse cx="51.2" cy="49.6" rx="7.2" ry="8.8" transform="translate(-20.08 50.73) rotate(-45)"/><ellipse class="cls-4" cx="48.16" cy="47.22" rx="2.21" ry="2.7" transform="translate(-19.28 47.88) rotate(-45)"/></svg>