<svg id="Layer_1" data-name="Layer 1" xmlns="http://www.w3.org/2000/svg" viewBox="0 0 80 80"><defs><style>.cls-1{fill:#fff;}.cls-1,.cls-3{stroke:#000;stroke-miterlimit:10;}.cls-2{fill:#fdc48b;}.cls-3{fill:#008c81;stroke-width:0.5px;}</style></defs><path class="cls-1" d="M5.5,59.5c-.25.19,73.85-12.28,73.85-12.28"/><path class="cls-2" d="M79.36,47.18A40,40,0,0,1,5.17,59.69Z"/><path class="cls-3" d="M40,53.27a12.16,12.16,0,0,0,1.75-6.33,36.65,36.65,0,0,0-.66-6.6c-.19-.17,1.38-2.36,1.56-2.31s.21.2.26.33A17.9,17.9,0,0,1,41.63,53.2Z"/><path class="cls-3" d="M51.51,28.63c-2.36,1.51-5.41,1.83-7.52,3.69a6.7,6.7,0,0,0-2.08,6.28c1-1,2.59-.7,4-1A18.41,18.41,0,0,0,49,37.16,5.43,5.43,0,0,0,51.8,34.4,16.18,16.18,0,0,0,53,30.53,3.1,3.1,0,0,0,53,28.85C52.83,28.32,52,28.32,51.51,28.63Z"/><path class="cls-3" d="M42.37,38.87a8.38,8.38,0,0,0-5-4.15c-2.15-.63-5.15.85-6.49.82a3.52,3.52,0,0,0-2.33,1s4.17,3.19,6.18,3.81a8.4,8.4,0,0,0,6.12-.59C41.39,39.43,42.22,39.51,42.37,38.87Z"/><path d="M40,1A39,39,0,1,1,1,40,39.05,39.05,0,0,1,40,1m0-1A40,40,0,1,0,80,40,40,40,0,0,0,40,0Z"/></svg>