<svg id="Layer_1" data-name="Layer 1" xmlns="http://www.w3.org/2000/svg" viewBox="0 0 80 80"><defs><style>.cls-1{fill:#f5ebe2;}.cls-2{fill:#ffc600;}</style></defs><circle class="cls-1" cx="40" cy="40" r="39.5"/><path d="M40,1A39,39,0,1,1,1,40,39.05,39.05,0,0,1,40,1m0-1A40,40,0,1,0,80,40,40,40,0,0,0,40,0Z"/><rect class="cls-2" x="14" y="16" width="52" height="47" rx="12"/><path d="M33.65,30.36H26.9a3,3,0,0,0-3,3l-.05,9.22a1.26,1.26,0,0,0,1.25,1.26h0a1.25,1.25,0,0,0,1.25-1.25l.05-9.22h0a.25.25,0,0,1,.5,0v21.1a1.51,1.51,0,1,0,3,0v-12h.65v12a1.51,1.51,0,1,0,3,0c0-19.91,0-8.52,0-21.08a.27.27,0,0,1,.25-.27.26.26,0,0,1,.27.25h0v9.21a1.25,1.25,0,0,0,1.25,1.26h0a1.26,1.26,0,0,0,1.26-1.25V33.32h0A3,3,0,0,0,33.65,30.36Z"/><circle cx="30.28" cy="26.93" r="2.6"/><path d="M57.93,40.59c0-.07-2.31-6.58-2.67-7.62-.57-1.69-1.54-2.54-2.88-2.54H48c-1.33,0-2.3.85-2.88,2.54-.36,1-2.64,7.55-2.67,7.62a1.25,1.25,0,1,0,2.36.82c.07-.21,1.44-4,2.21-6.22-.08.66.15-.7-1.78,9.27a.7.7,0,0,0,.68.83h.95v9a1.5,1.5,0,1,0,3,0v-9h.65v9a1.5,1.5,0,1,0,3,0v-9h1a.7.7,0,0,0,.68-.83c-1.92-9.88-1.71-8.73-1.77-9.27.77,2.21,2.1,6,2.18,6.22a1.24,1.24,0,1,0,2.35-.82Z"/><circle cx="50.22" cy="27.02" r="2.58"/><path d="M39.86,26a1,1,0,0,0-1,1V53.3a1,1,0,0,0,1.92,0V27A1,1,0,0,0,39.86,26Z"/><path class="cls-2" d="M23,61s-2,7-5,7c8,0,13.48-7,13.48-7Z"/></svg>