<svg id="Layer_1" data-name="Layer 1" xmlns="http://www.w3.org/2000/svg" viewBox="0 0 80 80"><defs><style>.cls-1{fill:#f5ebe2;}</style></defs><circle class="cls-1" cx="40" cy="40" r="39.5"/><path d="M40,1A39,39,0,1,1,1,40,39.05,39.05,0,0,1,40,1m0-1A40,40,0,1,0,80,40,40,40,0,0,0,40,0Z"/><rect x="28.13" y="13.01" width="1.14" height="12.99"/><polygon points="24.04 16.78 24.88 17.55 28.7 13.45 32.52 17.55 33.35 16.78 28.7 11.77 24.04 16.78"/><rect x="51.74" y="11.77" width="1.14" height="12.99"/><polygon points="47.66 21 48.49 20.22 52.31 24.33 56.13 20.22 56.96 21 52.31 26 47.66 21"/><path d="M33.09,36.24H25.34a3.41,3.41,0,0,0-3.4,3.39l-.06,10.58a1.46,1.46,0,0,0,1.44,1.45h0a1.44,1.44,0,0,0,1.44-1.44l.06-10.57h0a.29.29,0,0,1,.28-.28.29.29,0,0,1,.29.29v24.2a1.73,1.73,0,1,0,3.45,0V50h.75V63.85a1.73,1.73,0,0,0,3.45,0c0-22.84,0-9.78,0-24.18a.3.3,0,0,1,.29-.3.29.29,0,0,1,.31.27h0V50.22A1.45,1.45,0,0,0,35,51.66h0a1.44,1.44,0,0,0,1.44-1.44V39.64h0A3.41,3.41,0,0,0,33.09,36.24Z"/><circle cx="29.22" cy="32.31" r="2.98"/><path d="M60.92,48c0-.07-2.65-7.54-3.06-8.74-.66-1.93-1.77-2.9-3.3-2.9h-5c-1.53,0-2.64,1-3.3,2.9-.41,1.2-3,8.67-3.06,8.74a1.43,1.43,0,1,0,2.7,1c.08-.24,1.66-4.62,2.54-7.14-.1.76.17-.8-2.05,10.64a.8.8,0,0,0,.78.94h1.09V63.73a1.72,1.72,0,0,0,3.43,0V53.36h.74V63.73a1.72,1.72,0,0,0,3.43,0V53.36H57a.79.79,0,0,0,.78-.94c-2.19-11.34-2-10-2-10.64.89,2.54,2.42,6.9,2.5,7.14a1.43,1.43,0,0,0,2.7-1Z"/><circle cx="52.08" cy="32.42" r="2.96"/><path d="M40.2,31.25a1.1,1.1,0,0,0-1.1,1.1v30.2a1.1,1.1,0,0,0,2.2,0V32.35A1.1,1.1,0,0,0,40.2,31.25Z"/></svg>