<svg id="Layer_1" data-name="Layer 1" xmlns="http://www.w3.org/2000/svg" viewBox="0 0 80 80"><defs><style>.cls-1{fill:#ffd4d6;}.cls-2,.cls-3{fill:#2a5dcb;}.cls-2,.cls-4{stroke:#000;stroke-miterlimit:10;}.cls-4{fill:#ffc600;}</style></defs><circle class="cls-1" cx="40" cy="40" r="39.5"/><path d="M40,1A39,39,0,1,1,1,40,39.05,39.05,0,0,1,40,1m0-1A40,40,0,1,0,80,40,40,40,0,0,0,40,0Z"/><path class="cls-2" d="M30,43.74,28.18,66.35a24.61,24.61,0,0,0,24.83,0Q51.78,55,50.56,43.74Z"/><path class="cls-2" d="M17,21.88S24.08,26,39.73,26s22.67-4.1,22.67-4.1S58.74,37.65,52.15,44.61H28.05S18.36,33.55,17,21.88Z"/><ellipse class="cls-3" cx="39.73" cy="20.57" rx="23.48" ry="5.4"/><path class="cls-4" d="M39.73,15.26c-13,0-23.48,2.39-23.48,5.34S26.76,26,39.73,26s23.48-2.4,23.48-5.35S52.7,15.26,39.73,15.26Zm0,7.15c-7.55,0-13.66-.81-13.66-1.81s6.11-1.8,13.66-1.8,13.66.81,13.66,1.8S47.28,22.41,39.73,22.41Z"/></svg>