<svg id="Layer_1" data-name="Layer 1" xmlns="http://www.w3.org/2000/svg" viewBox="0 0 80 80"><defs><style>.cls-1{fill:#ee5637;}.cls-2{fill:#ffc600;stroke:#000;stroke-miterlimit:10;}</style></defs><circle class="cls-1" cx="40" cy="40" r="39.5"/><path d="M40,1A39,39,0,1,1,1,40,39.05,39.05,0,0,1,40,1m0-1A40,40,0,1,0,80,40,40,40,0,0,0,40,0Z"/><path class="cls-2" d="M79.5,41.5l-15.57.27-1.57,19a14.91,14.91,0,0,0,9.52,2.65S80.5,50.5,79.5,41.5Z"/><path class="cls-2" d="M76.5,25.5A31.72,31.72,0,0,1,53,23.4c1.15,9.81,9.29,19.1,9.29,19.1H79.5c1-5-3-17-3-17"/><path class="cls-2" d="M74.5,22.5c-7,2-13.75.65-13.91-.17S70.65,20.71,73.5,20.5c-2-3-1.43-2.66-1.43-2.66-10.9,0-19.73,2-19.73,4.49S65.5,29.5,76.5,25.5Z"/><path class="cls-2" d="M.5,40.5l15.58.27,1.56,19a14.9,14.9,0,0,1-9.51,2.65S-.5,49.5.5,40.5Z"/><path class="cls-2" d="M3.5,24.5A31.72,31.72,0,0,0,27,22.4c-1.14,9.81-9.28,19.1-9.28,19.1H.5c-1-5,3-17,3-17"/><path class="cls-2" d="M5.5,21.5c7,2,13.76.65,13.92-.17S9.36,19.71,6.5,19.5a12.38,12.38,0,0,1,2-3c10.89,0,19.16,2.35,19.16,4.83S15.5,28.5,4.5,24.5Z"/></svg>