<svg id="Layer_1" data-name="Layer 1" xmlns="http://www.w3.org/2000/svg" viewBox="0 0 80 80"><defs><style>.cls-1{fill:#ffe4ad;}.cls-2{fill:#ee5637;}.cls-3{fill:#2a5dcb;}</style></defs><circle class="cls-1" cx="40" cy="40" r="39.5"/><path d="M40,1A39,39,0,1,1,1,40,39.05,39.05,0,0,1,40,1m0-1A40,40,0,1,0,80,40,40,40,0,0,0,40,0Z"/><path class="cls-2" d="M65,39.56h0L64,36a8.2,8.2,0,0,0-10-5.8l-20.1,5.39v-11a.91.91,0,0,1,.66-.88l14.26-4A6.4,6.4,0,0,0,53.23,12l-.46-1.66a.91.91,0,0,0-1.07-.65L22.51,15.87a6.41,6.41,0,0,0-5.05,6.24V59a2.74,2.74,0,0,0-1.83,2.57v1.82a.91.91,0,0,0,.91.91H34.78a.91.91,0,0,0,.91-.91V61.56A2.72,2.72,0,0,0,33.87,59V48.84l17.24-4.62.24.88A2.74,2.74,0,0,0,54.69,47h0l7-1.88a2.75,2.75,0,0,0,1.93-3.35h0l-.24-.89.88-.23A.91.91,0,0,0,65,39.56ZM19.28,33.29H32V58.82H19.28ZM33.87,62.47H17.46v-.91a.91.91,0,0,1,.91-.92H33a.92.92,0,0,1,.92.92ZM32,24.66v6.81H19.28V22.11a4.59,4.59,0,0,1,3.61-4.46l28.35-6,.23.83A4.56,4.56,0,0,1,48.3,18L34,22A2.74,2.74,0,0,0,32,24.66ZM61.27,43.38h0l-7,1.88a.9.9,0,0,1-1.12-.64h0l-.23-.88,8.8-2.36.24.88A.9.9,0,0,1,61.27,43.38ZM33.87,47V37.51L54.45,32a6.38,6.38,0,0,1,7.81,4.51L63,39.15Z"/><path class="cls-3" d="M60.14,49.19l-.75-1.09-.75,1.09c-.48.7-4.72,6.91-4.72,9.63a5.47,5.47,0,0,0,10.94,0C64.86,56.1,60.63,49.89,60.14,49.19Z"/></svg>