<svg id="Layer_1" data-name="Layer 1" xmlns="http://www.w3.org/2000/svg" viewBox="0 0 80 80"><defs><style>.cls-1{fill:#2a5dcb;}.cls-2{fill:#ffc600;}.cls-3{fill:#ee5637;}</style></defs><circle class="cls-1" cx="40" cy="40" r="39.5"/><path d="M40,1A39,39,0,1,1,1,40,39.05,39.05,0,0,1,40,1m0-1A40,40,0,1,0,80,40,40,40,0,0,0,40,0Z"/><path d="M61.37,28.8H50.89a.85.85,0,0,1-.84-.85V17.49a.84.84,0,0,1,1.44-.6L62,27.35a.83.83,0,0,1,0,1.2.82.82,0,0,1-.59.25Zm-9.63-1.7h7.58l-7.58-7.57Z"/><path d="M26.2,18.33H22.08l0,48.36H60.51V28.3l-10-10H26.2Z"/><path class="cls-2" d="M32.85,16.63h18a.84.84,0,0,1,.6.25L62,27.35a.84.84,0,0,1,.25.6V67.54a.85.85,0,0,1-.85.85H21.22a.85.85,0,0,1-.85-.85V17.48a.85.85,0,0,1,.85-.85H32.85Z"/><path d="M56.13,41H26.45a.85.85,0,1,1,0-1.69H56.13a.85.85,0,1,1,0,1.69Z"/><path d="M56.13,47.76H26.45a.85.85,0,1,1,0-1.7H56.13a.85.85,0,1,1,0,1.7Z"/><path d="M56.13,54.55H26.45a.85.85,0,0,1,0-1.7H56.13a.85.85,0,1,1,0,1.7Z"/><path d="M56.13,61.33H26.45a.85.85,0,1,1,0-1.69H56.13a.85.85,0,1,1,0,1.69Z"/><path class="cls-3" d="M26.1,27.33a.85.85,0,0,1-.83-.71A7.41,7.41,0,0,1,30,18.69a7.4,7.4,0,0,1,8.93,2.38.84.84,0,0,1-.22,1.18.51.51,0,0,1-.16.09L26.42,27.27A.87.87,0,0,1,26.1,27.33Z"/><path class="cls-2" d="M33,19.79a6.32,6.32,0,0,0-2.39.47,5.87,5.87,0,0,0-3.77,5l10-4A5.57,5.57,0,0,0,33,19.79Z"/><path class="cls-3" d="M27.73,22.12a.85.85,0,0,1-.78-.53l-2.21-5.45A.84.84,0,0,1,25.2,15l5.71-2.32a.86.86,0,0,1,1.11.47l2.2,5.44a.85.85,0,1,1-1.57.64l-1.89-4.66-4.13,1.68L28.52,21a.85.85,0,0,1-.47,1.11.87.87,0,0,1-.32.06Z"/><path class="cls-3" d="M36,34.3a.86.86,0,0,1-.68-.34L29,25.56a.83.83,0,0,1,.16-1.18.52.52,0,0,1,.19-.11l5.1-2.07a.85.85,0,0,1,1.11.46.8.8,0,0,1,.05.21l1.29,10.48a.85.85,0,0,1-.53.89.87.87,0,0,1-.32.06Z"/><path class="cls-3" d="M25.53,16.67a.92.92,0,0,1-.38-.08l-3.47-1.74a.85.85,0,0,1-.38-1.14.82.82,0,0,1,.44-.4L32.19,9.06a.85.85,0,0,1,1.11.47.88.88,0,0,1,0,.6L32,13.79a.86.86,0,0,1-.48.51l-5.7,2.31a.91.91,0,0,1-.32.06Zm-1.41-2.5,1.44.72,5-2,.53-1.52Z"/></svg>